<svg xmlns="http://www.w3.org/2000/svg" xmlns:lucid="lucid" width="1200" height="460"><g lucid:page-tab-id="0_0"><path d="M-140-560h1870.87V762.83H-140z" fill="#fff"/><path d="M20 25.88c0-3.36 2.32-5.88 5.8-5.88h228.52c3.48 0 5.8 2.52 5.8 5.88v48.3c0 3.36-2.32 5.88-5.8 5.88H25.8c-3.48 0-5.8-2.52-5.8-5.88z" stroke="#000" stroke-opacity="0" stroke-width="1.3" fill="#fff" fill-opacity="0"/><path d="M71.04 43.94c0-2.52-5.8-2.52-5.8 0 1.16 4.2 9.28.42 9.28 7.14 0 5.88-10.44 5.46-12.76 2.1v-2.1l2.32-.42c0 2.94 6.96 3.78 6.96.42 0-4.2-9.28-.42-9.28-7.14 0-5.46 9.28-5.46 11.6-2.1 1.16.42 1.16 1.26 1.16 1.68M83.8 43.52c3.48 0 4.64 2.52 4.64 5.88s-1.16 5.88-4.64 6.3c-2.32 0-2.32-1.26-3.48-2.1v6.3h-3.48V43.52h3.48v2.1c0-1.68 1.16-2.1 3.48-2.1zM82.64 53.6c2.32 0 2.32-2.1 2.32-4.2 0-2.52 0-3.78-2.32-3.78-3.48 0-3.48 7.98 0 7.98M90.76 55.28V39.32h3.48v15.96h-3.48M96.56 41.42v-2.1h3.48v2.1h-3.48zm0 13.86V43.52h3.48v11.76h-3.48M108.16 55.28c-2.32.84-4.64.42-4.64-2.94v-6.72h-2.32v-2.1h2.32l1.16-2.94h1.16v2.94h2.32v2.1h-2.32v5.88c0 1.68 1.16 2.1 2.32 1.68v2.1M110.48 41.42v-2.1h3.48v2.1h-3.48zm0 13.86V43.52h3.48v11.76h-3.48M123.24 43.52c5.8-.42 3.48 6.72 4.64 11.76h-3.48c-1.16-3.36 1.16-9.66-2.32-9.66-3.48 0-2.32 5.88-2.32 9.66h-3.48V43.52h3.48v2.52c1.16-1.68 1.16-2.52 3.48-2.52M140.64 54.86c1.16 5.46-6.96 6.72-10.44 3.36v-1.26l2.32-.42c1.16.84 1.16 1.26 2.32 1.26 2.32 0 3.48-2.1 2.32-4.62 0 1.26-1.16 2.1-3.48 2.1-3.48 0-4.64-2.52-4.64-5.88s1.16-5.88 4.64-5.88c2.32 0 3.48.84 3.48 2.1l1.16-2.1h2.32zm-5.8-1.68c2.32 0 2.32-1.68 2.32-3.78 0-2.52 0-3.78-2.32-3.78-1.16 0-2.32 1.68-2.32 3.78 0 2.1 1.16 3.78 2.32 3.78M156.88 43.52c3.48 0 4.64 2.52 4.64 5.88s-1.16 5.88-4.64 6.3c-2.32 0-3.48-1.26-3.48-2.52l-1.16 2.1h-2.32V39.32h3.48v6.3c0-1.26 1.16-2.1 3.48-2.1zm-1.16 10.08c1.16 0 2.32-1.68 2.32-4.2 0-2.52-1.16-3.78-2.32-3.78-2.32 0-2.32 1.68-2.32 3.78 0 2.1 0 4.2 2.32 4.2M167.32 55.7c-5.8 0-3.48-7.14-3.48-12.18h2.32c1.16 3.36-1.16 9.24 2.32 9.66 3.48-.42 2.32-5.88 2.32-9.66h3.48v11.76h-3.48v-2.52c-1.16 1.68-1.16 2.94-3.48 2.94M187.04 51.5c0 2.52-2.32 4.2-4.64 4.2-4.64 0-5.8-2.52-5.8-6.3-1.16-6.72 9.28-8.4 10.44-2.1h-3.48c0-1.26 0-1.68-1.16-1.68-2.32 0-2.32 1.68-2.32 3.78-1.16 4.62 3.48 5.46 3.48 1.68M197.48 55.28L194 49.82l-1.16 1.26v4.2h-3.48V39.32h3.48v9.24l3.48-5.04h3.48l-3.48 4.62 3.48 7.14h-2.32M211.4 52.34c0 1.68-2.32 3.36-4.64 3.36-3.48-.42-5.8-2.52-5.8-6.3s2.32-5.88 5.8-5.88 4.64 2.52 4.64 6.3h-6.96c0 2.1 0 3.36 2.32 3.78 1.16 0 2.32-.42 2.32-1.68zm-2.32-4.2c0-2.94-3.48-3.78-4.64-1.26v1.26h4.64M219.52 55.28c-2.32.84-4.64.42-4.64-2.94v-6.72h-2.32v-2.1h2.32v-2.94h2.32v2.94h2.32v2.1h-2.32v5.88c0 1.68 1.16 2.1 2.32 1.68v2.1" stroke="#000" stroke-opacity="0" stroke-width=".03" fill="#333"/><path d="M300.72 176.24c0-3.36 2.32-6.3 5.8-6.3h88.16c3.48 0 5.8 2.94 5.8 6.3v127.68c0 3.36-2.32 6.3-5.8 6.3h-88.16c-3.48 0-5.8-2.94-5.8-6.3z" stroke="#5e5e5e" stroke-width="1.3" fill="#fff"/><path d="M344.8 189.68c4.64 0 5.8 3.36 5.8 7.56 0 4.62-2.32 7.98-5.8 7.98-4.64 0-5.8-3.36-5.8-7.98 0-4.2 1.16-7.56 5.8-7.56zm0 13.86c2.32 0 3.48-2.94 3.48-6.3s0-6.3-3.48-6.3-3.48 2.94-3.48 6.3 0 6.3 3.48 6.3M357.56 189.68c3.48 0 4.64 3.36 4.64 7.56 0 4.62-1.16 7.98-4.64 7.98-4.64 0-5.8-3.36-5.8-7.98 0-4.2 1.16-7.56 5.8-7.56zm0 13.86c2.32 0 2.32-2.94 2.32-6.3s0-6.3-2.32-6.3c-3.48 0-3.48 2.94-3.48 6.3s0 6.3 3.48 6.3M344.8 216.14c4.64 0 5.8 3.36 5.8 7.98 0 4.2-2.32 7.98-5.8 7.98-4.64 0-5.8-3.78-5.8-7.98 0-4.62 1.16-7.98 5.8-7.98zm0 14.28c2.32 0 3.48-2.94 3.48-6.3s0-6.3-3.48-6.3-3.48 2.94-3.48 6.3 0 6.3 3.48 6.3M352.92 231.68V230h3.48v-11.76l-3.48 2.52v-1.68l3.48-2.52h2.32V230h3.48v1.68h-9.28M340.16 258.56v-1.68h3.48v-11.76l-3.48 2.1v-1.68l4.64-2.52h1.16v13.86h3.48v1.68h-9.28M357.56 243.02c3.48 0 4.64 3.36 4.64 7.56 0 4.62-1.16 7.98-4.64 7.98-4.64 0-5.8-3.36-5.8-7.98 0-4.2 1.16-7.56 5.8-7.56zm0 13.86c2.32 0 2.32-2.94 2.32-6.3 0-2.94 0-6.3-2.32-6.3-3.48 0-3.48 2.94-3.48 6.3s0 6.3 3.48 6.3M341.32 285.02v-1.68h3.48v-11.76l-3.48 2.52v-1.68l3.48-2.52h2.32v13.44h3.48v1.68h-9.28M351.76 285.02v-1.68h3.48v-11.76l-3.48 2.52v-1.68l4.64-2.52h1.16v13.44h3.48v1.68h-9.28" stroke="#000" stroke-opacity="0" stroke-width=".03" fill="#333"/><path d="M240.4 316.1c0-3.36 3.48-5.88 5.8-5.88H455c3.48 0 5.8 2.52 5.8 5.88v92.82c0 3.36-2.32 6.3-5.8 6.3H246.2c-2.32 0-5.8-2.94-5.8-6.3z" stroke="#000" stroke-opacity="0" stroke-width="1.3" fill="#fff" fill-opacity="0"/><path d="M303.04 341.3c8.12-.42 13.92.42 13.92 7.56 0 5.04-2.32 7.56-6.96 7.56h-6.96V341.3zm3.48 13.02c4.64.42 6.96-1.26 6.96-5.46s-2.32-5.46-6.96-5.04v10.5M319.28 342.98v-2.52h3.48v2.52h-3.48zm0 13.44v-11.34h3.48v11.34h-3.48M333.2 347.18c-3.48-.42-4.64.84-4.64 3.78v5.46h-2.32v-11.34h2.32v2.1c1.16-1.68 2.32-2.94 4.64-2.52v2.52M344.8 353.48c-1.16 2.1-2.32 3.36-5.8 3.36s-4.64-2.1-4.64-6.3c0-3.78 1.16-5.88 4.64-5.88 4.64 0 5.8 2.94 5.8 6.72h-8.12c0 1.68 1.16 3.36 2.32 3.36s2.32-.42 2.32-1.26zm-3.48-4.2c1.16-2.94-3.48-3.78-3.48-1.26-1.16.42-1.16.84-1.16 1.26h4.64M357.56 352.64c-1.16 2.52-2.32 4.2-5.8 4.2s-4.64-2.52-5.8-5.88c0-7.14 9.28-8.82 11.6-2.52l-3.48.42c0-1.26-1.16-2.1-2.32-2.1-2.32 0-2.32 1.68-2.32 3.78 0 4.62 3.48 5.46 4.64 2.1M364.52 356.42c-2.32.84-4.64.42-4.64-2.52v-7.14h-2.32v-1.68h2.32l1.16-2.94h1.16v2.94h2.32v1.68h-2.32v6.3c0 1.26 1.16 1.68 2.32 1.68v1.68M371.48 344.66c4.64 0 6.96 2.1 6.96 5.88 0 4.2-2.32 6.3-6.96 6.3-3.48 0-5.8-2.1-5.8-6.3 0-3.78 2.32-5.88 5.8-5.88zm0 10.08c2.32 0 3.48-1.68 3.48-4.2 0-2.1-1.16-3.78-3.48-3.78-1.16 0-2.32 1.68-2.32 3.78 0 2.52 1.16 4.2 2.32 4.2M386.56 347.18c-2.32-.42-3.48.84-3.48 3.78v5.46h-2.32l-1.16-11.34h3.48v2.1c0-1.68 2.32-2.94 3.48-2.52v2.52M394.68 357.26c-1.16 2.52-2.32 4.62-5.8 3.78v-2.1c2.32.42 3.48-.84 3.48-2.52l-4.64-11.34h3.48l2.32 8.82 3.48-8.82h2.32" stroke="#000" stroke-opacity="0" stroke-width=".03" fill="#333"/><path d="M283.32 370.28c-1.16 6.3 1.16 14.7-5.8 13.02-1.16-.42-2.32-1.26-2.32-2.1l1.16-.42c1.16 2.52 5.8 1.68 4.64-1.26v-1.68c0 1.26-1.16 2.1-2.32 2.1-3.48 0-3.48-2.1-3.48-5.04 0-2.52 0-4.62 3.48-4.62 1.16 0 2.32.84 2.32 1.68v-1.68h2.32zm-4.64 8.4c2.32 0 2.32-1.68 2.32-3.78 0-2.1 0-3.36-2.32-3.36s-2.32 1.68-2.32 3.36c0 2.1 0 3.78 2.32 3.78M285.64 379.52v-12.6h1.16v12.6h-1.16M292.6 370.28c3.48 0 4.64 1.68 4.64 4.62 0 3.36-1.16 5.04-4.64 5.04-2.32 0-3.48-2.1-3.48-5.04s1.16-4.62 3.48-4.62zm0 8.4c2.32 0 2.32-1.68 2.32-3.78 0-2.1 0-3.36-2.32-3.36s-2.32 1.26-2.32 3.36c0 2.1 0 3.78 2.32 3.78M303.04 370.28c3.48 0 3.48 1.68 3.48 4.62 0 3.36-1.16 5.04-3.48 5.04-1.16 0-2.32-.42-2.32-1.68v1.26h-2.32v-12.6h2.32v5.04c0-1.26 1.16-1.68 2.32-1.68zm0 8.4c2.32 0 2.32-1.68 2.32-3.78 0-1.68 0-3.36-2.32-3.36s-2.32 1.26-2.32 3.78c0 2.1 0 3.36 2.32 3.36M314.64 377.84c-1.16 1.26-1.16 2.1-3.48 2.1-1.16 0-2.32-1.26-2.32-2.94 0-2.94 2.32-2.94 5.8-2.94 0-1.68 0-2.52-2.32-2.52-1.16 0-2.32 0-2.32 1.26h-1.16c0-2.1 1.16-2.52 3.48-2.52 2.32 0 3.48.84 3.48 2.94v4.2c0 .84 1.16 1.68 1.16 1.26v.84c-1.16.42-2.32 0-2.32-1.68zM310 377c0 1.26 1.16 1.68 1.16 1.68 2.32 0 3.48-1.26 3.48-3.78-2.32.42-4.64 0-4.64 2.1M319.28 379.52v-12.6h1.16v12.6h-1.16M330.88 370.28c1.16 0 2.32.42 2.32 1.68v-5.04h2.32v12.6h-2.32v-1.26c0 1.26-1.16 1.68-2.32 1.68-2.32 0-3.48-2.1-3.48-5.04s1.16-4.62 3.48-4.62zm0 1.26c-2.32 0-2.32 1.68-2.32 3.36 0 2.1 0 3.78 2.32 3.78s2.32-1.68 2.32-3.78c0-2.1 0-3.78-2.32-3.36M341.32 370.28c3.48 0 4.64 2.1 4.64 5.04H339c0 2.1 0 3.36 2.32 3.36 1.16 0 2.32-.42 2.32-1.26l1.16.42c0 1.26-1.16 2.1-3.48 2.1-2.32 0-4.64-1.68-4.64-5.04 0-2.94 1.16-4.62 4.64-4.62zm2.32 3.78c0-2.94-3.48-3.78-4.64-1.26v1.26h4.64M351.76 370.28c2.32 0 3.48 2.1 3.48 4.62 0 2.94-1.16 5.04-3.48 5.04-1.16 0-2.32-.84-2.32-1.68v5.04h-2.32v-13.02h2.32v1.68c0-1.26 1.16-1.68 2.32-1.68zm0 8.4c1.16 0 2.32-1.68 2.32-3.78 0-1.68-1.16-3.36-2.32-3.36-2.32 0-2.32 1.26-2.32 3.78 0 2.1 0 3.36 2.32 3.36M358.72 377.42c0 1.26 1.16 1.26 2.32 1.26v.84c-2.32.84-3.48.42-3.48-1.68v-6.3h-1.16v-1.26h1.16v-2.1h1.16v2.1h2.32v1.26h-2.32v5.88M366.84 371.54c-4.64 0-2.32 5.04-3.48 7.98h-1.16v-12.6h1.16v5.04c1.16-1.26 2.32-1.68 3.48-1.68 4.64 0 2.32 5.46 3.48 9.24H368v-5.88c0-1.26 0-2.1-1.16-2.1M380.76 383.3c-2.32-2.1-3.48-4.62-3.48-8.4 0-3.36 1.16-5.88 3.48-7.98h1.16c-2.32 2.1-3.48 4.62-3.48 8.4 0 3.36 1.16 5.88 3.48 7.98h-1.16M387.72 370.28c4.64-.42 2.32 5.46 2.32 9.24h-1.16v-5.88c0-1.26 0-2.1-2.32-2.1-3.48 0-1.16 5.04-2.32 7.98h-1.16v-9.24h1.16v1.68c1.16-1.26 2.32-1.68 3.48-1.68M393.52 366.92c1.16 2.1 3.48 4.62 3.48 8.4 0 3.36-2.32 5.88-3.48 7.98h-1.16c1.16-2.1 2.32-4.62 2.32-7.98 0-3.78-1.16-6.3-2.32-8.4h1.16M403.96 372.38v-1.26h8.12v1.26h-8.12zm0 4.2v-1.26h8.12v1.26h-8.12M422.52 367.34c4.64-.42 4.64 4.2 2.32 6.3l-2.32 2.94c-1.16.42-1.16 1.26-2.32 1.68h6.96v1.26h-8.12c0-4.62 5.8-4.62 5.8-8.82 0-1.26 0-2.1-2.32-2.1-1.16 0-2.32.84-2.32 2.1h-1.16c0-2.1 1.16-3.36 3.48-3.36" stroke="#000" stroke-opacity="0" stroke-width=".02" fill="#333"/><path d="M403.96 224.96l25.52-.42 19.72-1.26 17.4-1.68 15.08-2.52 17.4-2.94 61.48-13.86 15.08-2.1 17.4-1.68 20.88-1.26 8.12-.42" stroke="#5e5e5e" stroke-width=".86" fill-opacity="0"/><path d="M403.96 226.22h-1.16v-2.1h1.16z" stroke="#000" stroke-opacity="0" stroke-width=".43" fill="#5e5e5e"/><path d="M637.12 196.82l-13.92 4.62-1.16-9.24z" stroke="#5e5e5e" stroke-width=".86" fill="#5e5e5e"/><path d="M403.96 283.76l10.44.42 9.28.42 9.28.84 8.12 1.26 8.12 1.68 6.96 1.68 6.96 1.68 6.96 2.52 6.96 2.52 6.96 2.94 6.96 3.36 9.28 4.62 13.92 7.56 29 17.64 8.12 4.62 8.12 3.36 6.96 2.94 5.8 2.52 6.96 2.1 6.96 2.1 6.96 1.68 8.12 1.26 8.12 1.26 9.28.84 3.48.42" stroke="#5e5e5e" stroke-width=".86" fill-opacity="0"/><path d="M403.96 282.92v1.68h-1.16v-1.68z" stroke="#000" stroke-opacity="0" stroke-width=".43" fill="#5e5e5e"/><path d="M637.12 356.42l-15.08 4.2 1.16-9.24z" stroke="#5e5e5e" stroke-width=".86" fill="#5e5e5e"/><path d="M403.96 256.04l39.44.84 27.84 1.68 25.52 2.52 75.4 9.66 27.84 1.68 22.04.42" stroke="#5e5e5e" stroke-width=".86" fill-opacity="0"/><path d="M403.96 254.78v2.1h-1.16v-2.1z" stroke="#000" stroke-opacity="0" stroke-width=".43" fill="#5e5e5e"/><path d="M637.12 273.26l-15.08 4.2 1.16-9.24z" stroke="#5e5e5e" stroke-width=".86" fill="#5e5e5e"/><path d="M641.76 96.02c0-3.36 2.32-5.88 5.8-5.88h249.4c2.32 0 5.8 2.52 5.8 5.88v28.14c0 3.36-3.48 5.88-5.8 5.88h-249.4c-3.48 0-5.8-2.52-5.8-5.88z" stroke="#5e5e5e" stroke-width="1.3" fill="#fff"/><path d="M750.8 112.4c-1.16 1.26-2.32 2.52-4.64 2.52s-3.48-1.26-3.48-3.36c0-4.2 3.48-4.2 8.12-4.2 0-2.1-1.16-3.36-3.48-3.36-1.16.42-2.32.42-2.32 2.1h-2.32c1.16-2.52 2.32-3.36 5.8-3.36 2.32 0 3.48 1.26 3.48 3.78v5.04c0 1.26 1.16 2.1 2.32 1.68v1.26c-2.32.84-3.48 0-3.48-2.1zm-5.8-.84c0 1.26 0 1.68 1.16 1.68 3.48 0 4.64-1.68 4.64-4.2-3.48 0-5.8-.42-5.8 2.52M757.76 112.4c1.16 2.1 0 3.78 0 5.04h-1.16v-5.04h1.16M774 102.74c3.48 0 3.48 2.52 3.48 5.88 0 4.2-1.16 6.3-3.48 6.3-2.32 0-3.48-.84-3.48-2.1l-1.16 1.68h-1.16V98.54h2.32v6.3c0-1.26 1.16-2.1 3.48-2.1zm-1.16 10.5c2.32 0 3.48-2.1 3.48-4.62 0-2.1-1.16-4.62-3.48-4.2-2.32 0-2.32 1.68-2.32 4.62 0 2.52 0 4.2 2.32 4.2M783.28 112.4c0 2.1 0 3.78-1.16 5.04h-1.16c0-.84 1.16-1.68 1.16-2.94h-1.16v-2.1h2.32M797.2 104.42c-2.32 0-3.48 1.68-3.48 4.2 0 2.52 1.16 4.62 3.48 4.62 1.16 0 2.32-.84 2.32-2.1h2.32c0 2.1-2.32 3.78-4.64 3.78-3.48 0-4.64-2.52-4.64-6.3-1.16-5.46 5.8-7.98 9.28-3.78v1.26l-2.32.42c0-1.26-1.16-2.1-2.32-2.1" stroke="#000" stroke-opacity="0" stroke-width=".03" fill="#333"/><path d="M403.96 194.3l8.12-.42 9.28-.42 8.12-.84 8.12-1.26 6.96-1.26 5.8-1.68 6.96-1.68 5.8-2.1 5.8-2.1 6.96-2.52 5.8-2.94 6.96-3.36 6.96-4.2 9.28-6.3 41.76-28.56 8.12-4.2 5.8-3.36 6.96-2.94 5.8-2.52 5.8-2.1 6.96-2.1 5.8-1.68 6.96-1.68 6.96-1.26 6.96-1.26 8.12-.84h1.16" stroke="#5e5e5e" stroke-width=".86" fill-opacity="0"/><path d="M403.96 195.14h-1.16v-2.1h1.16z" stroke="#000" stroke-opacity="0" stroke-width=".43" fill="#5e5e5e"/><path d="M637.12 110.3l-13.92 5.04-1.16-9.24z" stroke="#5e5e5e" stroke-width=".86" fill="#5e5e5e"/><path d="M641.76 182.54c0-3.36 2.32-5.88 5.8-5.88h249.4c2.32 0 5.8 2.52 5.8 5.88v28.14c0 3.36-3.48 5.88-5.8 5.88h-249.4c-3.48 0-5.8-2.52-5.8-5.88z" stroke="#5e5e5e" stroke-width="1.3" fill="#fff"/><path d="M767.04 189.68l-5.8 13.44c-1.16 1.68-2.32 3.36-4.64 2.52v-1.26c2.32.42 3.48-1.26 3.48-3.36l-4.64-11.34h2.32l3.48 9.66 3.48-9.66h2.32M769.36 198.92c0 2.1 0 4.2-1.16 5.04h-1.16c0-.84 1.16-1.26 1.16-2.52h-1.16v-2.52h2.32M777.48 201.44v-1.68l8.12-8.82h-6.96v-1.26h8.12v1.26l-6.96 8.82h8.12v1.68h-10.44" stroke="#000" stroke-opacity="0" stroke-width=".03" fill="#333"/><path d="M641.76 259.4c0-3.36 2.32-6.3 5.8-6.3h249.4c2.32 0 5.8 2.94 5.8 6.3v27.72c0 3.36-3.48 6.3-5.8 6.3h-249.4c-3.48 0-5.8-2.94-5.8-6.3z" stroke="#5e5e5e" stroke-width="1.3" fill="#fff"/><path d="M749.64 265.7c2.32 0 2.32.84 3.48 2.1v-5.88h2.32v15.96h-2.32v-2.1c-1.16 1.68-1.16 2.52-3.48 2.52-3.48 0-4.64-2.52-4.64-6.3 0-4.2 1.16-6.3 4.64-6.3zm0 1.68c-2.32 0-2.32 2.1-2.32 4.62s0 4.62 2.32 4.62c3.48 0 3.48-2.1 3.48-4.62s0-4.62-3.48-4.62M761.24 275.36c0 2.1 0 4.2-1.16 5.46h-1.16c0-.84 1.16-1.68 1.16-2.94h-1.16v-2.52h2.32M775.16 265.7c3.48 0 5.8 2.94 4.64 6.72h-8.12c0 2.52 1.16 4.2 3.48 4.2 2.32 0 2.32-.84 3.48-1.68l1.16.42c0 1.68-2.32 2.94-4.64 2.94-3.48 0-5.8-2.52-5.8-6.3 1.16-3.78 2.32-6.3 5.8-6.3zm3.48 5.04c0-3.36-4.64-4.62-5.8-1.68-1.16.42-1.16 1.26-1.16 1.68h6.96M785.6 275.36c0 2.1 0 4.2-1.16 5.46h-1.16c1.16-.84 1.16-1.68 1.16-2.94h-1.16v-2.52h2.32M799.52 263.6c-1.16-.84-2.32.42-2.32 2.52h2.32v1.26h-2.32v10.5h-1.16v-10.5h-2.32v-1.26h2.32c-1.16-3.36 1.16-5.04 3.48-4.2v1.68" stroke="#000" stroke-opacity="0" stroke-width=".03" fill="#333"/><path d="M902.76 85.94c0-3.36 2.32-5.88 5.8-5.88h148.48c3.48 0 5.8 2.52 5.8 5.88v47.88c0 3.36-2.32 6.3-5.8 6.3H908.56c-3.48 0-5.8-2.94-5.8-6.3z" stroke="#000" stroke-opacity="0" stroke-width="1.3" fill="#fff" fill-opacity="0"/><path d="M912.04 114.92V101.9h2.32v13.02h-2.32M920.16 105.26c3.48 0 4.64 1.68 4.64 5.04 0 2.94-2.32 4.62-4.64 4.62-3.48 0-4.64-1.68-4.64-4.62 0-3.36 1.16-5.04 4.64-5.04zm0 8.82c2.32 0 2.32-1.68 2.32-3.78 0-2.1 0-3.78-2.32-3.78s-2.32 1.68-2.32 3.78c0 2.1 0 3.36 2.32 3.78M929.44 106.52c-1.16 0-2.32 1.68-2.32 3.78 0 1.68 1.16 3.36 2.32 3.36s2.32-.42 2.32-1.68h1.16c0 2.1-1.16 2.94-3.48 2.94-2.32 0-3.48-1.68-3.48-4.62-1.16-4.62 4.64-6.72 6.96-3.36v1.26h-1.16c0-.84-1.16-1.68-2.32-1.68M941.04 113.24c-1.16.84-1.16 1.68-3.48 1.68-2.32 0-2.32-.84-2.32-2.52-1.16-3.36 2.32-3.36 5.8-3.36 0-1.68-1.16-2.52-2.32-2.52s-2.32.42-2.32 1.68l-1.16-.42c0-1.68 1.16-2.52 3.48-2.52 2.32 0 3.48.84 3.48 3.36v3.78c0 1.26 1.16 1.68 1.16 1.26v1.26c-1.16.42-2.32 0-2.32-1.68zm-4.64-.84c0 .84 0 1.68 1.16 1.68 2.32-.42 3.48-1.68 3.48-3.78-2.32 0-4.64-.42-4.64 2.1M944.52 114.92V101.9h2.32v13.02h-2.32M957.28 105.26c1.16 0 2.32.84 2.32 1.68v-5.04h2.32v13.02h-2.32v-1.68c0 1.26-1.16 1.68-2.32 1.68-3.48 0-3.48-1.68-3.48-4.62 0-3.36 1.16-5.04 3.48-5.04zm0 1.26c-2.32 0-2.32 1.68-2.32 3.78 0 1.68 0 3.36 2.32 3.36s2.32-1.26 2.32-3.78c0-1.68 0-3.36-2.32-3.36M967.72 105.26c3.48 0 4.64 2.1 3.48 5.46h-5.8c0 1.68 0 2.94 2.32 3.36 1.16 0 2.32-.84 2.32-1.68l1.16.42c0 1.26-1.16 2.1-3.48 2.1-3.48 0-4.64-1.68-4.64-4.62 0-3.36 1.16-5.04 4.64-5.04zm2.32 4.2c0-2.94-3.48-3.78-4.64-1.68v1.68h4.64M978.16 105.26c2.32 0 3.48 2.1 3.48 5.04 0 2.52-1.16 4.62-3.48 4.62-1.16 0-2.32-.42-3.48-1.68l1.16 5.46h-2.32v-13.02h1.16l1.16 1.26c0-.84 1.16-1.68 2.32-1.68zm0 8.82c1.16 0 2.32-1.68 2.32-3.78 0-2.1-1.16-3.78-2.32-3.78-2.32 0-2.32 1.68-2.32 3.78 0 2.1 0 3.78 2.32 3.78M985.12 112.4c0 1.26 1.16 1.68 2.32 1.26v1.26c-2.32.42-3.48 0-3.48-2.1v-6.3h-1.16v-.84h1.16v-2.52h1.16v2.52h2.32v.84h-2.32v5.88M992.08 106.52c-3.48 0-1.16 5.04-2.32 8.4h-1.16V101.9h1.16v5.04c1.16-.84 2.32-1.68 3.48-1.68 4.64 0 2.32 5.88 2.32 9.66h-1.16v-5.88c0-1.68 0-2.52-2.32-2.52M1006 118.7c-1.16-2.1-2.32-4.62-2.32-8.4 0-3.78 1.16-6.3 2.32-8.4h2.32c-2.32 2.1-3.48 4.62-3.48 8.4 0 3.78 1.16 6.3 3.48 8.4H1006" stroke="#000" stroke-opacity="0" stroke-width=".02" fill="#333"/><path d="M1011.8 105.26c2.32 0 2.32.84 3.48 1.68v-5.04h1.16v13.02h-1.16v-1.68c0 1.26-1.16 1.68-3.48 1.68-2.32 0-2.32-1.68-3.48-4.62 0-3.36 1.16-5.04 3.48-5.04zm1.16 1.26c-2.32 0-2.32 1.68-2.32 3.78 0 1.68 0 3.36 2.32 3.36s2.32-1.26 2.32-3.78c0-1.68 0-3.36-2.32-3.36M1019.92 101.9c1.16 2.1 3.48 4.62 3.48 8.4 0 3.78-2.32 6.3-3.48 8.4h-2.32c2.32-2.1 3.48-4.62 3.48-8.4 0-3.78-1.16-6.3-3.48-8.4h2.32M1029.2 107.36v-1.26h9.28v1.26h-9.28zm0 4.62v-1.26h9.28v1.26h-9.28M1048.92 102.32c4.64 0 4.64 4.62 2.32 6.72l-3.48 2.52c0 .84-1.16 1.26-1.16 2.1h6.96v1.26h-8.12c0-5.04 5.8-4.62 5.8-9.24 0-1.26-1.16-2.1-2.32-2.1s-2.32.84-2.32 2.1h-1.16c0-2.1 1.16-2.94 3.48-3.36" stroke="#000" stroke-opacity="0" stroke-width=".02" fill="#333"/><path d="M902.76 181.7h112.52v34.86H902.76z" stroke="#000" stroke-opacity="0" stroke-width=".43" fill="#fff" fill-opacity="0"/><path d="M938.72 192.62c2.32 0 3.48.42 4.64 1.68v-5.88h1.16v15.96h-1.16v-1.68c-1.16 1.26-2.32 2.1-4.64 2.1s-3.48-2.52-3.48-6.3 1.16-5.88 3.48-5.88zm1.16 1.26c-2.32 0-2.32 2.1-2.32 4.62s0 4.62 2.32 4.62 3.48-2.1 3.48-4.62-1.16-4.62-3.48-4.62M953.8 195.14v-1.68h10.44v1.68H953.8zm0 5.46v-1.68h10.44v1.68H953.8M978.16 188.84c4.64-.42 5.8 5.46 2.32 8.4L977 200.6c-1.16.42-1.16 1.26-2.32 2.1h8.12v1.68h-10.44c1.16-5.88 8.12-5.88 8.12-11.34 0-1.68-1.16-2.52-2.32-2.52-2.32 0-3.48.84-3.48 2.52h-1.16c0-2.52 1.16-3.78 4.64-4.2" stroke="#000" stroke-opacity="0" stroke-width=".03" fill="#333"/><path d="M902.76 253.1h112.52v35.28H902.76z" stroke="#000" stroke-opacity="0" stroke-width=".43" fill="#fff" fill-opacity="0"/><path d="M938.72 264.02c2.32 0 3.48.84 4.64 2.1v-6.3h1.16v16.38h-1.16v-2.1c-1.16 1.26-2.32 2.1-4.64 2.1s-3.48-2.52-3.48-5.88c0-4.2 1.16-6.3 3.48-6.3zm1.16 1.68c-2.32 0-2.32 2.1-2.32 4.62 0 2.1 0 4.2 2.32 4.2s3.48-1.68 3.48-4.62c0-2.52-1.16-4.62-3.48-4.2M953.8 266.54v-1.26h10.44v1.26H953.8zm0 5.88v-1.68h10.44v1.68H953.8M978.16 260.66c4.64-.42 5.8 5.04 2.32 7.98L977 272c-1.16.84-1.16 1.26-2.32 2.52h8.12v1.68h-10.44c1.16-6.3 8.12-5.88 8.12-11.34 0-1.68-1.16-2.94-2.32-2.94-2.32 0-3.48 1.26-3.48 2.52h-1.16c0-2.52 1.16-3.78 4.64-3.78" stroke="#000" stroke-opacity="0" stroke-width=".03" fill="#333"/><path d="M20 96.02c0-3.36 2.32-5.88 5.8-5.88h128.76c3.48 0 5.8 2.52 5.8 5.88v51.24c0 3.36-2.32 6.3-5.8 6.3H25.8c-3.48 0-5.8-2.94-5.8-6.3z" stroke="#000" stroke-opacity="0" stroke-width="1.3" fill="#fff" fill-opacity="0"/><path d="M37.4 115.76c-4.64 0-3.48 6.3-3.48 10.5H31.6V110.3h2.32v6.3c1.16-1.26 2.32-2.1 3.48-2.1 5.8 0 3.48 7.14 4.64 11.76h-2.32v-7.56c0-1.68-1.16-2.94-2.32-2.94M47.84 130.88c-2.32-2.52-3.48-5.46-3.48-10.5 0-4.62 1.16-7.56 3.48-10.08h2.32c-2.32 2.52-3.48 5.46-3.48 10.08 0 5.04 1.16 7.98 3.48 10.5h-2.32M59.44 126.26l-3.48-4.62-3.48 4.62h-2.32l4.64-5.88-4.64-5.88h2.32l3.48 4.62 2.32-4.62h2.32l-3.48 5.88 3.48 5.88h-1.16M62.92 110.3c2.32 2.52 4.64 5.46 4.64 10.08 0 5.04-2.32 7.98-4.64 10.5h-1.16c2.32-2.52 3.48-5.46 3.48-10.5 0-4.62-1.16-7.56-3.48-10.08h1.16M75.68 117.02v-1.68h11.6v1.68h-11.6zm0 5.46v-1.68h11.6v1.68h-11.6M96.56 126.26v-2.1h2.32v2.1h-2.32M102.36 126.26v-2.1h2.32v2.1h-2.32M108.16 126.26v-2.1h2.32v2.1h-2.32M113.96 126.26v-1.68h4.64v-11.76l-3.48 2.52v-1.68l3.48-2.52h1.16v13.44h4.64v1.68h-10.44M131.36 110.72c4.64 0 5.8 3.36 5.8 7.98 0 4.2-2.32 7.98-5.8 7.98-4.64 0-5.8-3.78-5.8-7.98 0-4.62 1.16-7.98 5.8-7.98zm0 14.28c2.32 0 3.48-2.94 3.48-6.3s0-6.3-3.48-6.3-3.48 2.94-3.48 6.3 0 6.3 3.48 6.3M139.48 126.26v-1.68h3.48v-11.76l-3.48 2.52v-1.68l3.48-2.52h2.32v13.44h3.48v1.68h-9.28" stroke="#000" stroke-opacity="0" stroke-width=".03" fill="#333"/><path d="M281 220.76l-2.32-.42-2.32-.84-1.16-.84-2.32-1.26-2.32-1.26-2.32-1.26-2.32-1.26-2.32-1.68-2.32-1.68-2.32-2.1-2.32-2.52-3.48-2.52-3.48-3.36-3.48-4.2-3.48-5.46-6.96-9.66-18.56-25.2-4.64-5.88-3.48-3.78-2.32-3.36-3.48-2.94-2.32-2.1-2.32-2.1-2.32-2.1-2.32-1.26-2.32-1.68-2.32-1.26-2.32-1.26-2.32-.84-2.32-.84-2.32-.84-2.32-.84-2.32-.42-2.32-.84-2.32-.42-2.32-.42h-2.32l-2.32-.42h-2.32" stroke="#5e5e5e" stroke-width=".86" fill-opacity="0"/><path d="M296.08 222.86L281 225.38l1.16-8.82z" stroke="#5e5e5e" stroke-width=".86" fill="#5e5e5e"/><path d="M161.52 120.8v2.1h-1.16v-2.1z" stroke="#000" stroke-opacity="0" stroke-width=".43" fill="#5e5e5e"/><path d="M641.76 342.56c0-3.36 2.32-5.88 5.8-5.88h249.4c2.32 0 5.8 2.52 5.8 5.88v28.14c0 3.36-3.48 5.88-5.8 5.88h-249.4c-3.48 0-5.8-2.52-5.8-5.88z" stroke="#5e5e5e" stroke-width="1.3" fill="#fff"/><path d="M760.08 361.46h-2.32l-4.64-11.76h2.32l3.48 10.08 3.48-10.08h2.32M767.04 358.94c0 2.1 0 4.2-1.16 5.04h-1.16c0-.84 1.16-1.26 1.16-2.52h-1.16v-2.52h2.32M787.92 361.46h-2.32l-2.32-10.08-2.32 10.08h-2.32l-3.48-11.76h2.32l2.32 10.08 2.32-10.08h2.32l2.32 10.08 2.32-10.08h2.32" stroke="#000" stroke-opacity="0" stroke-width=".03" fill="#333"/><path d="M902.76 341.72h112.52v34.86H902.76z" stroke="#000" stroke-opacity="0" stroke-width=".43" fill="#fff" fill-opacity="0"/><path d="M938.72 352.64c2.32 0 3.48.42 4.64 1.68v-5.88h1.16v15.96h-1.16v-1.68c-1.16 1.26-2.32 2.1-4.64 2.1s-3.48-2.52-3.48-6.3 1.16-5.88 3.48-5.88zm1.16 1.26c-2.32 0-2.32 2.1-2.32 4.62s0 4.62 2.32 4.62 3.48-2.1 3.48-4.62-1.16-4.62-3.48-4.62M953.8 355.16v-1.68h10.44v1.68H953.8zm0 5.46v-1.68h10.44v1.68H953.8M978.16 348.86c4.64-.42 5.8 5.46 2.32 8.4l-3.48 3.36c-1.16.42-1.16 1.26-2.32 2.1h8.12v1.68h-10.44c1.16-5.88 8.12-5.88 8.12-11.34 0-1.68-1.16-2.52-2.32-2.52-2.32 0-3.48.84-3.48 2.52h-1.16c0-2.52 1.16-3.78 4.64-4.2" stroke="#000" stroke-opacity="0" stroke-width=".03" fill="#333"/><path d="M1039.64 319.46c0-3.36 2.32-6.3 5.8-6.3h128.76c3.48 0 5.8 2.94 5.8 6.3v51.24c0 3.36-2.32 5.88-5.8 5.88h-128.76c-3.48 0-5.8-2.52-5.8-5.88z" stroke="#000" stroke-opacity="0" stroke-width="1.3" fill="#fff" fill-opacity="0"/><path d="M1057.04 339.2c-3.48 0-2.32 6.3-2.32 10.5h-2.32v-16.38h2.32v6.72c0-1.68 1.16-2.52 3.48-2.52 5.8 0 3.48 7.14 3.48 12.18h-1.16v-7.56c0-2.1-1.16-2.94-3.48-2.94M1068.64 354.32c-2.32-2.52-3.48-5.88-3.48-10.5s1.16-7.98 3.48-10.5h2.32c-2.32 2.52-4.64 5.88-4.64 10.5s2.32 7.98 4.64 10.5h-2.32M1077.92 349.7h-2.32l-4.64-11.76h2.32l3.48 10.08 3.48-10.08h1.16M1083.72 333.32c2.32 2.52 4.64 5.88 4.64 10.5s-2.32 7.98-4.64 10.5h-1.16c1.16-2.52 3.48-5.88 3.48-10.5s-2.32-7.98-3.48-10.5h1.16M1096.48 340.46v-1.68h10.44v1.68h-10.44zm0 5.46v-1.68h10.44v1.68h-10.44M1116.2 349.7v-2.52h2.32v2.52h-2.32M1123.16 349.7v-2.52h2.32v2.52h-2.32M1128.96 349.7v-2.52h2.32v2.52h-2.32M1139.4 334.16c4.64 0 5.8 3.36 5.8 7.98 0 4.2-2.32 7.56-5.8 7.56-4.64 0-5.8-3.36-5.8-7.56 0-4.62 1.16-7.98 5.8-7.98zm0 14.28c2.32 0 3.48-3.36 3.48-6.3 0-3.36 0-6.3-3.48-6.3s-3.48 2.94-3.48 6.3c0 2.94 0 6.3 3.48 6.3M1147.52 349.7v-1.68h3.48v-11.76l-3.48 2.52v-2.1l3.48-2.52h2.32v13.86h3.48v1.68h-9.28M1157.96 349.7v-1.68h3.48v-11.76l-3.48 2.52v-2.1l3.48-2.52h2.32v13.86h3.48v1.68h-9.28" stroke="#000" stroke-opacity="0" stroke-width=".03" fill="#333"/><path d="M1039.64 376.58H1180V440h-140.36z" stroke="#000" stroke-opacity="0" stroke-width=".43" fill="#fff" fill-opacity="0"/><path d="M1055.88 389.18c-4.64 0-2.32 6.3-3.48 10.08h-1.16V383.3h1.16v6.3c1.16-1.26 2.32-2.1 4.64-2.1 4.64 0 2.32 7.14 3.48 11.76h-2.32v-7.14c0-2.1 0-3.36-2.32-2.94M1067.48 403.88c-2.32-2.52-4.64-5.46-4.64-10.08 0-5.04 2.32-7.98 4.64-10.5h1.16c-2.32 2.52-3.48 5.88-3.48 10.5s1.16 7.56 3.48 10.08h-1.16M1081.4 399.26h-2.32l-2.32-10.08-2.32 10.08h-2.32l-3.48-11.76h2.32l2.32 10.5 2.32-10.5h2.32l2.32 10.5 3.48-10.5h1.16M1087.2 383.3c2.32 2.52 3.48 5.88 3.48 10.5s-1.16 7.56-3.48 10.08h-2.32c2.32-2.52 4.64-5.46 4.64-10.08s-2.32-7.98-4.64-10.5h2.32M1099.96 390.02v-1.26h10.44v1.26h-10.44zm0 5.88v-1.68h10.44v1.68h-10.44M1119.68 399.26v-2.1h2.32v2.1h-2.32M1126.64 399.26v-2.1h1.16v2.1h-1.16M1132.44 399.26v-2.1h2.32v2.1h-2.32M1138.24 399.26v-1.68h3.48v-11.34l-3.48 2.1v-1.68l3.48-2.52h2.32v13.44h3.48v1.68h-9.28M1148.68 399.26v-1.68h4.64v-11.34l-3.48 2.1v-1.68l3.48-2.52h1.16v13.44h3.48v1.68h-9.28M1159.12 399.26v-1.68h4.64v-11.34l-3.48 2.1v-1.68l3.48-2.52h1.16v13.44h4.64v1.68h-10.44" stroke="#000" stroke-opacity="0" stroke-width=".03" fill="#333"/><path d="M1039.64 156.5H1180v63.42h-140.36z" stroke="#000" stroke-opacity="0" stroke-width=".43" fill="#fff" fill-opacity="0"/><path d="M1057.04 169.1c-4.64 0-3.48 6.3-3.48 10.08h-2.32v-15.96h2.32v6.3c1.16-1.26 2.32-2.1 3.48-2.1 5.8 0 3.48 7.14 3.48 11.76h-1.16v-7.14c0-2.1-1.16-3.36-2.32-2.94M1067.48 184.22c-2.32-2.94-3.48-5.88-3.48-10.5 0-5.04 1.16-7.98 3.48-10.5h2.32c-2.32 2.52-3.48 5.88-3.48 10.5s1.16 7.56 3.48 10.5h-2.32M1081.4 167.84l-5.8 13.44c-1.16 1.68-2.32 3.36-4.64 2.52v-1.26c2.32.42 3.48-1.26 3.48-3.36l-4.64-11.34h2.32l3.48 9.24 3.48-9.24h2.32" stroke="#000" stroke-opacity="0" stroke-width=".03" fill="#333"/><path d="M1082.56 163.22c2.32 2.52 4.64 5.88 4.64 10.5s-2.32 7.56-4.64 10.5h-1.16c2.32-2.94 3.48-5.88 3.48-10.5s-1.16-7.98-3.48-10.5h1.16M1095.32 169.94v-1.26h11.6v1.26h-11.6zm0 5.88v-1.68h11.6v1.68h-11.6M1116.2 179.18v-2.1h1.16v2.1h-1.16M1122 179.18v-2.1h2.32v2.1H1122M1127.8 179.18v-2.1h2.32v2.1h-2.32M1138.24 164.06c4.64 0 5.8 3.36 5.8 7.56 0 4.62-1.16 7.98-5.8 7.98-3.48 0-4.64-3.36-4.64-7.98 0-4.2 1.16-7.56 4.64-7.56zm0 13.86c3.48 0 3.48-2.94 3.48-6.3s0-6.3-3.48-6.3c-2.32 0-3.48 2.94-3.48 6.3s1.16 6.3 3.48 6.3M1151 164.06c4.64 0 5.8 3.36 5.8 7.56 0 4.62-2.32 7.98-5.8 7.98-4.64 0-5.8-3.36-5.8-7.98 0-4.2 1.16-7.56 5.8-7.56zm0 13.86c2.32 0 3.48-2.94 3.48-6.3s0-6.3-3.48-6.3-3.48 2.94-3.48 6.3 0 6.3 3.48 6.3M1159.12 179.18v-1.26h3.48v-11.76l-3.48 2.1v-1.68l3.48-2.52h2.32v13.86h3.48v1.26h-9.28M1057.04 195.56c-4.64 0-3.48 6.3-3.48 10.5h-2.32V190.1h2.32v6.3c1.16-1.26 2.32-2.52 3.48-2.52 5.8 0 3.48 7.56 3.48 12.18h-1.16v-7.56c0-1.68-1.16-2.94-2.32-2.94M1067.48 210.68c-2.32-2.52-3.48-5.88-3.48-10.5s1.16-7.56 3.48-10.08h2.32c-2.32 2.52-3.48 5.46-3.48 10.08s1.16 7.98 3.48 10.5h-2.32M1070.96 206.06v-1.68l6.96-8.4h-6.96v-1.68h9.28v1.68l-8.12 8.4h8.12v1.68h-9.28M1082.56 190.1c2.32 2.52 4.64 5.46 4.64 10.08s-2.32 7.98-4.64 10.5h-1.16c2.32-2.52 3.48-5.88 3.48-10.5s-1.16-7.56-3.48-10.08h1.16M1095.32 196.82v-1.68h11.6v1.68h-11.6zm0 5.46v-1.68h11.6v1.68h-11.6M1116.2 206.06v-2.52h1.16v2.52h-1.16M1122 206.06v-2.52h2.32v2.52H1122M1127.8 206.06v-2.52h2.32v2.52h-2.32M1133.6 206.06v-1.68h4.64v-11.76l-3.48 2.52v-1.68l3.48-2.52h1.16v13.44h4.64v1.68h-10.44M1151 190.52c4.64 0 5.8 3.36 5.8 7.98 0 4.2-2.32 7.98-5.8 7.98-4.64 0-5.8-3.78-5.8-7.98 0-4.62 1.16-7.98 5.8-7.98zm0 14.28c2.32 0 3.48-2.94 3.48-6.3s0-6.3-3.48-6.3-3.48 2.94-3.48 6.3 0 6.3 3.48 6.3M1159.12 206.06v-1.68h3.48v-11.76l-3.48 2.52v-1.68l3.48-2.52h2.32v13.44h3.48v1.68h-9.28" stroke="#000" stroke-opacity="0" stroke-width=".03" fill="#333"/></g></svg>