<svg xmlns="http://www.w3.org/2000/svg" xmlns:xlink="http://www.w3.org/1999/xlink" xmlns:lucid="lucid" width="1095.72" height="916.72"><g transform="translate(-260 -160)" lucid:page-tab-id="0_0"><path d="M0 0h1870.87v1322.83H0z" fill="#fff"/><path d="M320 186c0-3.3 2.7-6 6-6h228c3.3 0 6 2.7 6 6v48c0 3.3-2.7 6-6 6H326c-3.3 0-6-2.7-6-6z" stroke="#000" stroke-opacity="0" stroke-width="3" fill="#fff" fill-opacity="0"/><use xlink:href="#a" transform="matrix(1,0,0,1,325,185) translate(4.166666666666657 30.27777777777778)"/><use xlink:href="#b" transform="matrix(1,0,0,1,325,185) translate(130.95679012345678 30.27777777777778)"/><path d="M603.2 359.43c0-3.3 2.7-6 6-6h88c3.3 0 6 2.7 6 6v128c0 3.32-2.7 6-6 6h-88c-3.3 0-6-2.68-6-6z" stroke="#5e5e5e" stroke-width="3" fill="#fff"/><use xlink:href="#c" transform="matrix(1,0,0,1,608.2000000000002,358.4333333333334) translate(32.65432098765432 29.96527777777778)"/><use xlink:href="#d" transform="matrix(1,0,0,1,608.2000000000002,358.4333333333334) translate(32.65432098765432 56.63194444444445)"/><use xlink:href="#e" transform="matrix(1,0,0,1,608.2000000000002,358.4333333333334) translate(32.65432098765432 83.29861111111111)"/><use xlink:href="#f" transform="matrix(1,0,0,1,608.2000000000002,358.4333333333334) translate(33.48765432098766 109.9652777777778)"/><path d="M543.2 499.43c0-3.3 2.7-6 6-6h208c3.3 0 6 2.7 6 6v93c0 3.32-2.7 6-6 6h-208c-3.3 0-6-2.68-6-6z" stroke="#000" stroke-opacity="0" stroke-width="3" fill="#fff" fill-opacity="0"/><use xlink:href="#g" transform="matrix(1,0,0,1,548.2000000000002,498.4333333333334) translate(56.327160493827165 41.52777777777778)"/><use xlink:href="#h" transform="matrix(1,0,0,1,548.2000000000002,498.4333333333334) translate(27.83950617283952 64.63888888888889)"/><use xlink:href="#i" transform="matrix(1,0,0,1,548.2000000000002,498.4333333333334) translate(80.08641975308643 64.63888888888889)"/><use xlink:href="#j" transform="matrix(1,0,0,1,548.2000000000002,498.4333333333334) translate(129.46913580246914 64.63888888888889)"/><use xlink:href="#k" transform="matrix(1,0,0,1,548.2000000000002,498.4333333333334) translate(156.97530864197532 64.63888888888889)"/><use xlink:href="#l" transform="matrix(1,0,0,1,548.2000000000002,498.4333333333334) translate(172.28395061728395 64.63888888888889)"/><path d="M705.7 408.4l25.57-.5 20.38-1.28 16.96-1.77 15.53-2.3 16.82-3.2 61.32-13.5 15.52-2.28 16.95-1.78 20.38-1.27 8.07-.16" stroke="#5e5e5e" stroke-width="2" fill="none"/><path d="M705.75 409.4l-1.05.02v-2l1-.02z" fill="#5e5e5e"/><path d="M938.46 380.06l-14.17 4.92-.2-9.27z" stroke="#5e5e5e" stroke-width="2" fill="#5e5e5e"/><path d="M705.7 467.16l10.36.2 10.06.64 9.08.95 8.3 1.23 7.7 1.46 7.23 1.7 6.94 1.94 6.76 2.2 6.72 2.5 6.9 2.9 7.4 3.48 8.65 4.53 13.66 7.93 29.14 17.42 8.64 4.53 7.4 3.48 6.9 2.9 6.73 2.5 6.76 2.2 6.94 1.94 7.24 1.7 7.7 1.46 8.3 1.23 9.08.94 2.93.18" stroke="#5e5e5e" stroke-width="2" fill="none"/><path d="M705.75 466.16l-.04 2-1-.02v-2z" fill="#5e5e5e"/><path d="M938.47 539.88l-14.43 4.1.34-9.25z" stroke="#5e5e5e" stroke-width="2" fill="#5e5e5e"/><path d="M705.7 439.34l39.2.76 28.08 1.74 25.9 2.74 74.54 9.5 28.1 1.74 21.68.42" stroke="#5e5e5e" stroke-width="2" fill="none"/><path d="M705.75 438.34l-.04 2-1-.02v-2z" fill="#5e5e5e"/><path d="M938.46 456.54l-14.35 4.35.2-9.28z" stroke="#5e5e5e" stroke-width="2" fill="#5e5e5e"/><path d="M943.2 279.43c0-3.3 2.7-6 6-6h248c3.3 0 6 2.7 6 6v28c0 3.32-2.7 6-6 6h-248c-3.3 0-6-2.68-6-6z" stroke="#5e5e5e" stroke-width="3" fill="#fff"/><use xlink:href="#m" transform="matrix(1,0,0,1,948.2000000000002,278.4333333333334) translate(94.75308641975309 19.65277777777778)"/><use xlink:href="#n" transform="matrix(1,0,0,1,948.2000000000002,278.4333333333334) translate(119.44444444444444 19.65277777777778)"/><use xlink:href="#o" transform="matrix(1,0,0,1,948.2000000000002,278.4333333333334) translate(144.1358024691358 19.65277777777778)"/><path d="M705.7 377.5l8.92-.2 8.94-.55 8.14-.86 7.52-1.1 7-1.35 6.64-1.56 6.34-1.78 6.15-2 6.04-2.24 6.04-2.54 6.2-2.92 6.57-3.44 7.36-4.25 9.36-5.96 41.92-28.55 7.35-4.26 6.56-3.43 6.2-2.92 6.05-2.54 6.05-2.24 6.15-2 6.34-1.77 6.63-1.55 7-1.34 7.53-1.1 8.14-.86.38-.03" stroke="#5e5e5e" stroke-width="2" fill="none"/><path d="M705.75 378.5h-1.05v-2h1z" fill="#5e5e5e"/><path d="M938.47 293.56l-14.07 5.2-.37-9.26z" stroke="#5e5e5e" stroke-width="2" fill="#5e5e5e"/><path d="M943.2 366c0-3.3 2.7-6 6-6h248c3.3 0 6 2.7 6 6v28c0 3.3-2.7 6-6 6h-248c-3.3 0-6-2.7-6-6z" stroke="#5e5e5e" stroke-width="3" fill="#fff"/><use xlink:href="#p" transform="matrix(1,0,0,1,948.2000000000002,365) translate(96.82098765432099 19.65277777777778)"/><use xlink:href="#q" transform="matrix(1,0,0,1,948.2000000000002,365) translate(120.27777777777777 19.65277777777778)"/><use xlink:href="#r" transform="matrix(1,0,0,1,948.2000000000002,365) translate(142.0679012345679 19.65277777777778)"/><path d="M943.2 442.6c0-3.32 2.7-6 6-6h248c3.3 0 6 2.68 6 6v28c0 3.3-2.7 6-6 6h-248c-3.3 0-6-2.7-6-6z" stroke="#5e5e5e" stroke-width="3" fill="#fff"/><use xlink:href="#s" transform="matrix(1,0,0,1,948.2000000000003,441.5976554621732) translate(71.26851851851852 21.430555555555557)"/><use xlink:href="#t" transform="matrix(1,0,0,1,948.2000000000003,441.5976554621732) translate(95.95987654320987 21.430555555555557)"/><use xlink:href="#u" transform="matrix(1,0,0,1,948.2000000000003,441.5976554621732) translate(120.65123456790124 21.430555555555557)"/><use xlink:href="#v" transform="matrix(1,0,0,1,948.2000000000003,441.5976554621732) translate(139.16975308641975 21.430555555555557)"/><use xlink:href="#w" transform="matrix(1,0,0,1,948.2000000000003,441.5976554621732) translate(163.86111111111111 21.430555555555557)"/><path d="M1203.2 365.02h112.52V400H1203.2z" fill="#fff" fill-opacity="0"/><use xlink:href="#x" transform="matrix(1,0,0,1,1208.2000000000003,370.0154943977533) translate(26.500000000000004 17.777777777777775)"/><use xlink:href="#y" transform="matrix(1,0,0,1,1208.2000000000003,370.0154943977533) translate(45.01851851851852 17.777777777777775)"/><use xlink:href="#z" transform="matrix(1,0,0,1,1208.2000000000003,370.0154943977533) translate(64.15432098765432 17.777777777777775)"/><path d="M1203.2 436.6h112.52v34.98H1203.2z" fill="#fff" fill-opacity="0"/><use xlink:href="#A" transform="matrix(1,0,0,1,1208.2000000000003,441.5976554621732) translate(25.913580246913586 17.777777777777775)"/><use xlink:href="#B" transform="matrix(1,0,0,1,1208.2000000000003,441.5976554621732) translate(45.60493827160494 17.777777777777775)"/><use xlink:href="#C" transform="matrix(1,0,0,1,1208.2000000000003,441.5976554621732) translate(64.74074074074073 17.777777777777775)"/><path d="M943.2 526c0-3.3 2.7-6 6-6h248c3.3 0 6 2.7 6 6v28c0 3.3-2.7 6-6 6h-248c-3.3 0-6-2.7-6-6z" stroke="#5e5e5e" stroke-width="3" fill="#fff"/><use xlink:href="#D" transform="matrix(1,0,0,1,948.2000000000002,525) translate(106.11111111111111 19.65277777777778)"/><use xlink:href="#E" transform="matrix(1,0,0,1,948.2000000000002,525) translate(127.90123456790124 19.65277777777778)"/><path d="M1203.2 525.02h112.52V560H1203.2z" fill="#fff" fill-opacity="0"/><use xlink:href="#x" transform="matrix(1,0,0,1,1208.2000000000003,530.0154943977533) translate(26.500000000000004 17.777777777777775)"/><use xlink:href="#y" transform="matrix(1,0,0,1,1208.2000000000003,530.0154943977533) translate(45.01851851851852 17.777777777777775)"/><use xlink:href="#z" transform="matrix(1,0,0,1,1208.2000000000003,530.0154943977533) translate(64.15432098765432 17.777777777777775)"/><path d="M300 318.45h140V360H300z" fill="#fff" fill-opacity="0"/><use xlink:href="#F" transform="matrix(1,0,0,1,305,323.4488277310867) translate(4.876543209876559 17.777777777777775)"/><use xlink:href="#y" transform="matrix(1,0,0,1,305,323.4488277310867) translate(50.4320987654321 17.777777777777775)"/><use xlink:href="#G" transform="matrix(1,0,0,1,305,323.4488277310867) translate(69.5679012345679 17.777777777777775)"/><path d="M441 339.25l3 .06 3.76.24 3.56.38 3.4.5 3.24.62 3.13.73 3.03.85 2.97.96 2.9 1.08 2.88 1.2 2.86 1.36 2.86 1.5 2.9 1.66 2.93 1.87 3.04 2.1 3.17 2.42 3.36 2.8 3.67 3.3 4.16 4.08 5.12 5.46 8.3 9.7 19.5 23.34 5.12 5.47 4.16 4.1 3.67 3.3 3.36 2.8 3.17 2.4 3.04 2.1 2.94 1.87 2.9 1.67 2.86 1.5 2.86 1.34 2.88 1.2 2.9 1.1 2.97.95 3.04.85 2.73.64" stroke="#5e5e5e" stroke-width="2" fill="none"/><path d="M441.05 338.25l-.04 2-1-.03v-2z" fill="#5e5e5e"/><path d="M598.48 438.3l-14.67 3.13.97-9.22z" stroke="#5e5e5e" stroke-width="2" fill="#5e5e5e"/><path d="M583.2 667.72c0-3.32 2.7-6 6-6H694c3.3 0 6 2.68 6 6v278c0 3.3-2.7 6-6 6H589.2c-3.3 0-6-2.7-6-6z" stroke="#5e5e5e" stroke-width="3" fill="#fff"/><use xlink:href="#H" transform="matrix(1,0,0,1,588.2000000000003,666.7166666666667) translate(34.98148148148148 52.77777777777778)"/><use xlink:href="#I" transform="matrix(1,0,0,1,588.2000000000003,666.7166666666667) translate(34.98148148148148 79.44444444444446)"/><use xlink:href="#J" transform="matrix(1,0,0,1,588.2000000000003,666.7166666666667) translate(34.98148148148148 106.11111111111111)"/><use xlink:href="#K" transform="matrix(1,0,0,1,588.2000000000003,666.7166666666667) translate(35.81481481481482 132.7777777777778)"/><use xlink:href="#L" transform="matrix(1,0,0,1,588.2000000000003,666.7166666666667) translate(34.98148148148148 159.44444444444446)"/><use xlink:href="#M" transform="matrix(1,0,0,1,588.2000000000003,666.7166666666667) translate(34.98148148148148 186.11111111111111)"/><use xlink:href="#N" transform="matrix(1,0,0,1,588.2000000000003,666.7166666666667) translate(35.598765432098766 212.77777777777777)"/><use xlink:href="#O" transform="matrix(1,0,0,1,588.2000000000003,666.7166666666667) translate(36.64814814814815 239.44444444444443)"/><path d="M523.2 957.72c0-3.32 2.7-6 6-6h208c3.3 0 6 2.68 6 6v93c0 3.3-2.7 6-6 6h-208c-3.3 0-6-2.7-6-6z" stroke="#000" stroke-opacity="0" stroke-width="3" fill="#fff" fill-opacity="0"/><use xlink:href="#g" transform="matrix(1,0,0,1,528.2000000000002,956.7166666666667) translate(56.327160493827165 41.52777777777778)"/><use xlink:href="#h" transform="matrix(1,0,0,1,528.2000000000002,956.7166666666667) translate(27.83950617283952 64.63888888888889)"/><use xlink:href="#i" transform="matrix(1,0,0,1,528.2000000000002,956.7166666666667) translate(80.08641975308643 64.63888888888889)"/><use xlink:href="#j" transform="matrix(1,0,0,1,528.2000000000002,956.7166666666667) translate(129.46913580246914 64.63888888888889)"/><use xlink:href="#k" transform="matrix(1,0,0,1,528.2000000000002,956.7166666666667) translate(156.97530864197532 64.63888888888889)"/><use xlink:href="#P" transform="matrix(1,0,0,1,528.2000000000002,956.7166666666667) translate(172.28395061728395 64.63888888888889)"/><path d="M702.5 735.88l23.14-.46 18.9-1.18 15.83-1.65 14.2-2.1 14.1-2.7 18.3-4.33 44.35-11.2 14.1-2.7 14.2-2.1 15.83-1.65 18.9-1.18 5.65-.1" stroke="#5e5e5e" stroke-width="2" fill="none"/><path d="M702.55 736.88l-1.05.02v-2l1-.02z" fill="#5e5e5e"/><path d="M935.26 704.22l-14.17 4.92-.2-9.27z" stroke="#5e5e5e" stroke-width="2" fill="#5e5e5e"/><path d="M702.5 793.8l19.27.38 16.46 1.03 13.97 1.47 12.4 1.83 11.65 2.22 11.78 2.76 14.14 3.97 49.8 15.3 11.78 2.78 11.64 2.22 12.4 1.83 13.97 1.46 16.46 1.02 1.77.04" stroke="#5e5e5e" stroke-width="2" fill="none"/><path d="M702.55 792.8l-.04 2-1-.03v-2z" fill="#5e5e5e"/><path d="M935.26 832.4l-14.35 4.35.2-9.27z" stroke="#5e5e5e" stroke-width="2" fill="#5e5e5e"/><path d="M702.5 768.3H920" stroke="#5e5e5e" stroke-width="2" fill="none"/><path d="M702.53 769.3h-1.03v-2h1.03z" fill="#5e5e5e"/><path d="M935.26 768.3L921 772.96v-9.27z" stroke="#5e5e5e" stroke-width="2" fill="#5e5e5e"/><path d="M940 626c0-3.3 2.7-6 6-6h248c3.3 0 6 2.7 6 6v28c0 3.3-2.7 6-6 6H946c-3.3 0-6-2.7-6-6z" stroke="#5e5e5e" stroke-width="3" fill="#fff"/><use xlink:href="#m" transform="matrix(1,0,0,1,945,625) translate(94.75308641975309 19.65277777777778)"/><use xlink:href="#n" transform="matrix(1,0,0,1,945,625) translate(119.44444444444444 19.65277777777778)"/><use xlink:href="#o" transform="matrix(1,0,0,1,945,625) translate(144.1358024691358 19.65277777777778)"/><path d="M702.5 711.97l10.48-.2 10.17-.65 9.16-.96 8.37-1.23 7.75-1.48 7.3-1.7 7-1.96 6.8-2.23 6.8-2.52 7-2.95 7.54-3.55 8.96-4.7 16.68-9.73 23.68-14 8.96-4.68 7.55-3.55 6.98-2.95 6.8-2.53 6.8-2.22 7-1.95 7.3-1.7 7.75-1.5 8.36-1.22 9.15-.96 3.16-.2" stroke="#5e5e5e" stroke-width="2" fill="none"/><path d="M702.55 712.97l-1.05.02v-2l1-.03z" fill="#5e5e5e"/><path d="M935.27 640.12l-14.1 5.15-.33-9.27z" stroke="#5e5e5e" stroke-width="2" fill="#5e5e5e"/><path d="M940 690.16c0-3.32 2.7-6 6-6h248c3.3 0 6 2.68 6 6v28c0 3.3-2.7 6-6 6H946c-3.3 0-6-2.7-6-6z" stroke="#5e5e5e" stroke-width="3" fill="#fff"/><g><use xlink:href="#p" transform="matrix(1,0,0,1,945,689.1571610644199) translate(96.82098765432099 19.65277777777778)"/><use xlink:href="#q" transform="matrix(1,0,0,1,945,689.1571610644199) translate(120.27777777777777 19.65277777777778)"/><use xlink:href="#r" transform="matrix(1,0,0,1,945,689.1571610644199) translate(142.0679012345679 19.65277777777778)"/></g><path d="M940 754.3c0-3.3 2.7-6 6-6h248c3.3 0 6 2.7 6 6v28c0 3.33-2.7 6-6 6H946c-3.3 0-6-2.67-6-6z" stroke="#5e5e5e" stroke-width="3" fill="#fff"/><g><use xlink:href="#s" transform="matrix(1,0,0,1,945,753.3143221288399) translate(92.87345679012346 21.430555555555557)"/><use xlink:href="#t" transform="matrix(1,0,0,1,945,753.3143221288399) translate(117.56481481481481 21.430555555555557)"/><use xlink:href="#w" transform="matrix(1,0,0,1,945,753.3143221288399) translate(142.25617283950618 21.430555555555557)"/></g><path d="M1220 620h112.52v34.98H1220z" fill="#fff" fill-opacity="0"/><g><use xlink:href="#x" transform="matrix(1,0,0,1,1225,625) translate(26.500000000000004 17.777777777777775)"/><use xlink:href="#y" transform="matrix(1,0,0,1,1225,625) translate(45.01851851851852 17.777777777777775)"/><use xlink:href="#z" transform="matrix(1,0,0,1,1225,625) translate(64.15432098765432 17.777777777777775)"/></g><path d="M1223.2 684.16h112.52v34.98H1223.2z" fill="#fff" fill-opacity="0"/><g><use xlink:href="#Q" transform="matrix(1,0,0,1,1228.2000000000003,689.1571610644199) translate(26.500000000000004 17.777777777777775)"/><use xlink:href="#R" transform="matrix(1,0,0,1,1228.2000000000003,689.1571610644199) translate(45.01851851851852 17.777777777777775)"/><use xlink:href="#S" transform="matrix(1,0,0,1,1228.2000000000003,689.1571610644199) translate(64.15432098765432 17.777777777777775)"/></g><path d="M940 818.47c0-3.3 2.7-6 6-6h248c3.3 0 6 2.7 6 6v28c0 3.32-2.7 6-6 6H946c-3.3 0-6-2.68-6-6z" stroke="#5e5e5e" stroke-width="3" fill="#fff"/><g><use xlink:href="#D" transform="matrix(1,0,0,1,945,817.4714831932598) translate(106.11111111111111 19.65277777777778)"/><use xlink:href="#E" transform="matrix(1,0,0,1,945,817.4714831932598) translate(127.90123456790124 19.65277777777778)"/></g><path d="M1223.2 818.28h112.52v35H1223.2z" fill="#fff" fill-opacity="0"/><g><use xlink:href="#x" transform="matrix(1,0,0,1,1228.2000000000003,823.2833333333334) translate(26.500000000000004 17.777777777777775)"/><use xlink:href="#y" transform="matrix(1,0,0,1,1228.2000000000003,823.2833333333334) translate(45.01851851851852 17.777777777777775)"/><use xlink:href="#z" transform="matrix(1,0,0,1,1228.2000000000003,823.2833333333334) translate(64.15432098765432 17.777777777777775)"/></g><path d="M280 776.73h140v41.55H280z" fill="#fff" fill-opacity="0"/><g><use xlink:href="#F" transform="matrix(1,0,0,1,285,781.7321610644201) translate(4.876543209876559 17.777777777777775)"/><use xlink:href="#y" transform="matrix(1,0,0,1,285,781.7321610644201) translate(50.4320987654321 17.777777777777775)"/><use xlink:href="#G" transform="matrix(1,0,0,1,285,781.7321610644201) translate(69.5679012345679 17.777777777777775)"/></g><path d="M421 797.53l8.36.17 8.1.5 7.18.76 6.47.95 5.97 1.15 5.62 1.3 5.42 1.53 5.42 1.76 5.7 2.12 6.52 2.75 10.7 5.1 19.48 9.46 6.53 2.75 5.7 2.13 5.4 1.76 5.44 1.5 5.63 1.33 5.96 1.13 6.46.96 6.16.64" stroke="#5e5e5e" stroke-width="2" fill="none"/><path d="M421.05 796.53l-.04 2-1-.02v-2z" fill="#5e5e5e"/><path d="M578.47 837.92l-14.46 4 .42-9.25z" stroke="#5e5e5e" stroke-width="2" fill="#5e5e5e"/><path d="M1203.2 278.45h112.52v34.98H1203.2z" fill="#fff" fill-opacity="0"/><g><use xlink:href="#x" transform="matrix(1,0,0,1,1208.2000000000003,283.4488277310867) translate(26.500000000000004 17.777777777777775)"/><use xlink:href="#y" transform="matrix(1,0,0,1,1208.2000000000003,283.4488277310867) translate(45.01851851851852 17.777777777777775)"/><use xlink:href="#z" transform="matrix(1,0,0,1,1208.2000000000003,283.4488277310867) translate(64.15432098765432 17.777777777777775)"/></g><path d="M940 907.72c0-3.32 2.7-6 6-6h248c3.3 0 6 2.68 6 6v28c0 3.3-2.7 6-6 6H946c-3.3 0-6-2.7-6-6z" stroke="#5e5e5e" stroke-width="3" fill="#fff"/><g><use xlink:href="#T" transform="matrix(1,0,0,1,945,906.7166666666667) translate(109.5679012345679 19.65277777777778)"/><use xlink:href="#U" transform="matrix(1,0,0,1,945,906.7166666666667) translate(128.08641975308643 19.65277777777778)"/></g><path d="M702.5 870.04l14.6.3 13.26.82 11.56 1.2 10.36 1.54 9.53 1.8 9.06 2.13 8.92 2.5 9.33 3.03 11 4.1 50.8 20.9 9.32 3.05 8.92 2.5 9.05 2.12 9.52 1.82 10.36 1.52 11.56 1.2 10.37.66" stroke="#5e5e5e" stroke-width="2" fill="none"/><path d="M702.55 869.04l-.04 2-1-.02v-2z" fill="#5e5e5e"/><path d="M935.27 921.63l-14.4 4.25.26-9.27z" stroke="#5e5e5e" stroke-width="2" fill="#5e5e5e"/><path d="M1223.2 753.33h112.52v34.98H1223.2z" fill="#fff" fill-opacity="0"/><g><use xlink:href="#A" transform="matrix(1,0,0,1,1228.2000000000003,758.3298165265932) translate(25.913580246913586 17.777777777777775)"/><use xlink:href="#B" transform="matrix(1,0,0,1,1228.2000000000003,758.3298165265932) translate(45.60493827160494 17.777777777777775)"/><use xlink:href="#V" transform="matrix(1,0,0,1,1228.2000000000003,758.3298165265932) translate(64.74074074074073 17.777777777777775)"/></g><path d="M1223.2 906.73h112.52v35H1223.2z" fill="#fff" fill-opacity="0"/><g><use xlink:href="#A" transform="matrix(1,0,0,1,1228.2000000000003,911.73216106442) translate(25.913580246913586 17.777777777777775)"/><use xlink:href="#B" transform="matrix(1,0,0,1,1228.2000000000003,911.73216106442) translate(45.60493827160494 17.777777777777775)"/><use xlink:href="#V" transform="matrix(1,0,0,1,1228.2000000000003,911.73216106442) translate(64.74074074074073 17.777777777777775)"/></g><path d="M703.5 821.7c0 .55-.44 1-1 1-.55 0-1-.45-1-1 0-.56.45-1 1-1 .56 0 1 .44 1 1zm3.98-.1c0 .56-.45 1-1 1s-1-.44-1-1c0-.55.45-1 1-1s1 .45 1 1zm3.97-.25c0 .56-.45 1-1 1-.56 0-1-.44-1-1 0-.55.44-1 1-1 .55 0 1 .45 1 1zm3.95-.4c0 .55-.45 1-1 1s-1-.45-1-1 .45-1 1-1 1 .45 1 1zm3.94-.55c0 .55-.45 1-1 1s-1-.45-1-1c0-.56.45-1 1-1s1 .44 1 1zm3.9-.7c0 .54-.44 1-1 1-.54 0-1-.46-1-1 0-.56.46-1 1-1 .56 0 1 .44 1 1zm3.9-.88c0 .55-.46 1-1 1-.56 0-1-.45-1-1s.44-1 1-1c.54 0 1 .45 1 1zm3.83-1.03c0 .54-.45 1-1 1s-1-.46-1-1c0-.56.45-1 1-1s1 .44 1 1zm3.8-1.2c0 .56-.46 1-1 1-.56 0-1-.44-1-1 0-.55.44-1 1-1 .54 0 1 .45 1 1zm3.73-1.35c0 .56-.45 1-1 1s-1-.44-1-1c0-.55.45-1 1-1s1 .45 1 1zm3.68-1.5c0 .55-.45 1-1 1s-1-.45-1-1 .45-1 1-1 1 .45 1 1zm3.6-1.66c0 .54-.44 1-1 1-.54 0-1-.46-1-1 0-.56.46-1 1-1 .56 0 1 .44 1 1zm3.55-1.82c0 .56-.44 1-1 1-.55 0-1-.44-1-1 0-.55.45-1 1-1 .56 0 1 .45 1 1zm3.47-1.94c0 .55-.45 1-1 1s-1-.45-1-1c0-.56.45-1 1-1s1 .44 1 1zm3.4-2.1c0 .57-.46 1-1 1-.57 0-1-.43-1-1 0-.54.43-1 1-1 .54 0 1 .46 1 1zm3.3-2.2c0 .56-.46 1-1 1-.56 0-1-.44-1-1 0-.54.44-1 1-1 .54 0 1 .46 1 1zm3.22-2.3c0 .54-.45 1-1 1s-1-.46-1-1c0-.56.45-1 1-1s1 .44 1 1zm3.16-2.43c0 .56-.45 1-1 1-.56 0-1-.44-1-1 0-.54.44-1 1-1 .55 0 1 .46 1 1zm3.06-2.52c0 .55-.45 1-1 1s-1-.45-1-1c0-.56.45-1 1-1s1 .44 1 1zm2.98-2.64c0 .56-.45 1-1 1-.56 0-1-.44-1-1 0-.55.44-1 1-1 .55 0 1 .45 1 1zm2.9-2.7c0 .56-.43 1-1 1-.54 0-1-.44-1-1 0-.55.46-1 1-1 .57 0 1 .45 1 1zm2.85-2.78c0 .55-.44 1-1 1-.55 0-1-.45-1-1s.45-1 1-1c.56 0 1 .45 1 1zm2.76-2.86c0 .55-.45 1-1 1s-1-.45-1-1c0-.56.45-1 1-1s1 .44 1 1zm2.72-2.9c0 .55-.45 1-1 1s-1-.45-1-1c0-.56.45-1 1-1s1 .44 1 1zm2.6-3c0 .55-.43 1-1 1-.54 0-1-.45-1-1s.46-1 1-1c.57 0 1 .45 1 1zm2.6-3c0 .54-.44 1-1 1-.54 0-1-.46-1-1 0-.56.46-1 1-1 .56 0 1 .44 1 1zm2.52-3.1c0 .56-.45 1-1 1s-1-.44-1-1c0-.54.45-1 1-1s1 .46 1 1zm2.47-3.1c0 .54-.45 1-1 1-.56 0-1-.46-1-1 0-.56.44-1 1-1 .55 0 1 .44 1 1zm2.46-3.13c0 .55-.44 1-1 1-.55 0-1-.45-1-1s.45-1 1-1c.56 0 1 .45 1 1zm2.34-3.2c0 .54-.45 1-1 1s-1-.46-1-1c0-.57.45-1 1-1s1 .43 1 1zm2.33-3.23c0 .55-.45 1-1 1s-1-.45-1-1c0-.56.45-1 1-1s1 .44 1 1zm2.33-3.23c0 .57-.44 1-1 1-.55 0-1-.43-1-1 0-.54.45-1 1-1 .56 0 1 .46 1 1zm2.33-3.2c0 .54-.45 1-1 1s-1-.46-1-1c0-.56.45-1 1-1s1 .44 1 1zm2.23-3.3c0 .55-.45 1-1 1s-1-.45-1-1 .45-1 1-1 1 .45 1 1zm2.23-3.3c0 .56-.46 1-1 1-.56 0-1-.44-1-1 0-.54.44-1 1-1 .54 0 1 .46 1 1zm2.22-3.28c0 .55-.45 1-1 1s-1-.45-1-1 .45-1 1-1 1 .45 1 1zm2.23-3.3c0 .56-.44 1-1 1-.55 0-1-.44-1-1 0-.55.45-1 1-1 .56 0 1 .45 1 1zm2.23-3.28c0 .55-.44 1-1 1-.55 0-1-.45-1-1 0-.56.45-1 1-1 .56 0 1 .44 1 1zm2.24-3.3c0 .56-.45 1-1 1-.56 0-1-.44-1-1 0-.55.44-1 1-1 .55 0 1 .45 1 1zm2.23-3.3c0 .57-.45 1-1 1-.56 0-1-.43-1-1 0-.54.44-1 1-1 .55 0 1 .46 1 1zm2.23-3.28c0 .56-.45 1-1 1s-1-.44-1-1c0-.55.45-1 1-1s1 .45 1 1zm2.23-3.3c0 .57-.44 1-1 1-.54 0-1-.43-1-1 0-.54.46-1 1-1 .56 0 1 .46 1 1zm2.24-3.28c0 .56-.45 1-1 1s-1-.44-1-1c0-.55.45-1 1-1s1 .45 1 1zm2.23-3.3c0 .56-.45 1-1 1s-1-.44-1-1c0-.54.45-1 1-1s1 .46 1 1zm2.23-3.28c0 .55-.44 1-1 1-.55 0-1-.45-1-1s.45-1 1-1c.56 0 1 .45 1 1zm2.23-3.3c0 .56-.44 1-1 1-.55 0-1-.44-1-1 0-.54.45-1 1-1 .56 0 1 .46 1 1zm2.24-3.28c0 .55-.45 1-1 1-.56 0-1-.45-1-1s.44-1 1-1c.55 0 1 .45 1 1zm2.23-3.3c0 .56-.45 1-1 1-.56 0-1-.44-1-1 0-.54.44-1 1-1 .55 0 1 .46 1 1zm2.23-3.28c0 .55-.45 1-1 1s-1-.45-1-1 .45-1 1-1 1 .45 1 1zm2.23-3.3c0 .56-.45 1-1 1s-1-.44-1-1c0-.54.45-1 1-1s1 .46 1 1zm2.23-3.28c0 .55-.46 1-1 1-.56 0-1-.45-1-1 0-.56.44-1 1-1 .54 0 1 .44 1 1zm2.37-3.18c0 .55-.44 1-1 1-.55 0-1-.45-1-1s.45-1 1-1c.56 0 1 .45 1 1zm2.47-3.12c0 .55-.45 1-1 1s-1-.45-1-1 .45-1 1-1 1 .45 1 1zm2.47-3.12c0 .55-.44 1-1 1-.54 0-1-.45-1-1s.46-1 1-1c.56 0 1 .45 1 1zm2.6-3.02c0 .56-.45 1-1 1-.56 0-1-.44-1-1 0-.55.44-1 1-1 .55 0 1 .45 1 1zm2.6-3c0 .54-.46 1-1 1-.56 0-1-.46-1-1 0-.56.44-1 1-1 .54 0 1 .44 1 1zm2.68-2.94c0 .56-.45 1-1 1s-1-.44-1-1c0-.55.45-1 1-1s1 .45 1 1zm2.72-2.9c0 .56-.45 1-1 1s-1-.44-1-1c0-.55.45-1 1-1s1 .45 1 1zm2.83-2.8c0 .56-.45 1-1 1s-1-.44-1-1c0-.54.45-1 1-1s1 .46 1 1zm2.87-2.74c0 .55-.45 1-1 1s-1-.45-1-1 .45-1 1-1 1 .45 1 1zm2.95-2.66c0 .55-.45 1-1 1s-1-.45-1-1 .45-1 1-1 1 .45 1 1zm3.05-2.56c0 .55-.45 1-1 1-.56 0-1-.45-1-1s.44-1 1-1c.55 0 1 .45 1 1zm3.1-2.47c0 .55-.44 1-1 1-.54 0-1-.45-1-1s.46-1 1-1c.56 0 1 .45 1 1zm3.2-2.37c0 .55-.45 1-1 1s-1-.45-1-1 .45-1 1-1 1 .45 1 1zm3.27-2.26c0 .55-.45 1-1 1s-1-.45-1-1c0-.56.45-1 1-1s1 .44 1 1zm3.35-2.13c0 .54-.44 1-1 1-.55 0-1-.46-1-1 0-.57.45-1 1-1 .56 0 1 .43 1 1zm3.44-2c0 .54-.44 1-1 1-.55 0-1-.46-1-1 0-.56.45-1 1-1 .56 0 1 .44 1 1zm3.52-1.87c0 .55-.45 1-1 1-.56 0-1-.45-1-1s.44-1 1-1c.55 0 1 .45 1 1zm3.58-1.72c0 .57-.45 1-1 1s-1-.43-1-1c0-.54.45-1 1-1s1 .46 1 1zm3.65-1.55c0 .55-.43 1-1 1-.54 0-1-.45-1-1 0-.56.46-1 1-1 .57 0 1 .44 1 1zm3.73-1.42c0 .55-.45 1-1 1s-1-.45-1-1 .45-1 1-1 1 .45 1 1zm3.77-1.25c0 .55-.44 1-1 1-.55 0-1-.45-1-1s.45-1 1-1c.56 0 1 .45 1 1zm3.82-1.1c0 .56-.44 1-1 1-.55 0-1-.44-1-1 0-.55.45-1 1-1 .56 0 1 .45 1 1zm3.87-.93c0 .56-.46 1-1 1-.56 0-1-.44-1-1 0-.55.44-1 1-1 .54 0 1 .45 1 1z" fill="#5e5e5e"/><path d="M702.55 822.7l-1.05.02v-2l1-.02z" fill="#5e5e5e"/><path d="M935.28 640.28l-13.82 5.84-.8-9.24z" stroke="#5e5e5e" stroke-width="2" fill="#5e5e5e"/><path d="M703.5 846.36c0 .55-.44 1-1 1-.55 0-1-.45-1-1s.45-1 1-1c.56 0 1 .45 1 1zm4-.08c0 .55-.44 1-1 1-.55 0-1-.45-1-1s.45-1 1-1c.56 0 1 .45 1 1zm4-.2c0 .54-.44 1-1 1-.55 0-1-.46-1-1 0-.56.45-1 1-1 .56 0 1 .44 1 1zm4-.32c0 .55-.45 1-1 1-.56 0-1-.45-1-1s.44-1 1-1c.55 0 1 .45 1 1zm3.98-.42c0 .56-.45 1-1 1-.56 0-1-.44-1-1 0-.55.44-1 1-1 .55 0 1 .45 1 1zm3.96-.58c0 .55-.45 1-1 1-.56 0-1-.45-1-1s.44-1 1-1c.55 0 1 .45 1 1zm3.94-.7c0 .55-.45 1-1 1-.56 0-1-.45-1-1 0-.56.44-1 1-1 .55 0 1 .44 1 1zm3.9-.84c0 .56-.44 1-1 1-.54 0-1-.44-1-1 0-.55.46-1 1-1 .56 0 1 .45 1 1zm3.9-.96c0 .55-.45 1-1 1s-1-.45-1-1 .45-1 1-1 1 .45 1 1zm3.85-1.1c0 .56-.45 1-1 1s-1-.44-1-1c0-.55.45-1 1-1s1 .45 1 1zm3.8-1.23c0 .55-.44 1-1 1-.55 0-1-.45-1-1s.45-1 1-1c.56 0 1 .45 1 1zm3.76-1.4c0 .56-.46 1-1 1-.56 0-1-.44-1-1 0-.54.44-1 1-1 .54 0 1 .46 1 1zm3.7-1.5c0 .54-.46 1-1 1-.56 0-1-.46-1-1 0-.56.44-1 1-1 .54 0 1 .44 1 1zm3.64-1.66c0 .55-.45 1-1 1s-1-.45-1-1 .45-1 1-1 1 .45 1 1zm3.6-1.78c0 .54-.46 1-1 1-.57 0-1-.46-1-1 0-.56.43-1 1-1 .54 0 1 .44 1 1zm3.5-1.9c0 .55-.44 1-1 1-.54 0-1-.45-1-1 0-.56.46-1 1-1 .56 0 1 .44 1 1zm3.48-2c0 .54-.45 1-1 1-.56 0-1-.46-1-1 0-.56.44-1 1-1 .55 0 1 .44 1 1zm3.37-2.16c0 .56-.45 1-1 1-.56 0-1-.44-1-1 0-.55.44-1 1-1 .55 0 1 .45 1 1zm3.3-2.24c0 .55-.44 1-1 1-.55 0-1-.45-1-1 0-.56.45-1 1-1 .56 0 1 .44 1 1zm3.26-2.34c0 .55-.45 1-1 1s-1-.45-1-1 .45-1 1-1 1 .45 1 1zm3.2-2.42c0 .55-.46 1-1 1-.57 0-1-.45-1-1s.43-1 1-1c.54 0 1 .45 1 1zm3.08-2.54c0 .56-.44 1-1 1-.55 0-1-.44-1-1 0-.55.45-1 1-1 .56 0 1 .45 1 1zm3.06-2.58c0 .56-.45 1-1 1s-1-.44-1-1c0-.55.45-1 1-1s1 .45 1 1zm2.98-2.68c0 .55-.45 1-1 1-.56 0-1-.45-1-1s.44-1 1-1c.55 0 1 .45 1 1zm2.93-2.72c0 .55-.44 1-1 1-.54 0-1-.45-1-1s.46-1 1-1c.56 0 1 .45 1 1zm2.87-2.8c0 .55-.45 1-1 1-.56 0-1-.45-1-1 0-.56.44-1 1-1 .55 0 1 .44 1 1zm2.84-2.82c0 .55-.44 1-1 1-.54 0-1-.45-1-1s.46-1 1-1c.56 0 1 .45 1 1zm2.75-2.92c0 .55-.45 1-1 1s-1-.45-1-1c0-.56.45-1 1-1s1 .44 1 1zm2.73-2.93c0 .56-.44 1-1 1-.55 0-1-.44-1-1 0-.55.45-1 1-1 .56 0 1 .45 1 1zm2.73-2.93c0 .55-.44 1-1 1-.55 0-1-.45-1-1s.45-1 1-1c.56 0 1 .45 1 1zm2.63-3.02c0 .55-.44 1-1 1-.55 0-1-.45-1-1s.45-1 1-1c.56 0 1 .45 1 1zm2.63-3.02c0 .55-.45 1-1 1s-1-.45-1-1c0-.56.45-1 1-1s1 .44 1 1zm2.63-3.03c0 .56-.46 1-1 1-.57 0-1-.44-1-1 0-.55.43-1 1-1 .54 0 1 .45 1 1zm2.6-3.02c0 .56-.44 1-1 1-.54 0-1-.44-1-1 0-.55.46-1 1-1 .56 0 1 .45 1 1zm2.64-3.02c0 .56-.45 1-1 1s-1-.44-1-1c0-.54.45-1 1-1s1 .46 1 1zm2.62-3c0 .54-.44 1-1 1-.55 0-1-.46-1-1 0-.56.45-1 1-1 .56 0 1 .44 1 1zm2.63-3.03c0 .55-.46 1-1 1-.56 0-1-.45-1-1s.44-1 1-1c.54 0 1 .45 1 1zm2.62-3.02c0 .55-.45 1-1 1s-1-.45-1-1c0-.56.45-1 1-1s1 .44 1 1zm2.62-3.03c0 .56-.44 1-1 1-.55 0-1-.44-1-1 0-.55.45-1 1-1 .56 0 1 .45 1 1zm2.63-3.02c0 .56-.45 1-1 1s-1-.44-1-1c0-.55.45-1 1-1s1 .45 1 1zm2.63-3.02c0 .55-.45 1-1 1-.56 0-1-.45-1-1s.44-1 1-1c.55 0 1 .45 1 1zm2.62-3.02c0 .55-.44 1-1 1-.55 0-1-.45-1-1s.45-1 1-1c.56 0 1 .45 1 1zm2.63-3.02c0 .55-.45 1-1 1s-1-.45-1-1 .45-1 1-1 1 .45 1 1zm2.63-3.02c0 .55-.45 1-1 1-.56 0-1-.45-1-1 0-.56.44-1 1-1 .55 0 1 .44 1 1zm2.62-3.02c0 .55-.45 1-1 1s-1-.45-1-1c0-.56.45-1 1-1s1 .44 1 1zm2.63-3.03c0 .56-.45 1-1 1s-1-.44-1-1c0-.55.45-1 1-1s1 .45 1 1zm2.74-2.9c0 .55-.44 1-1 1-.55 0-1-.45-1-1 0-.56.45-1 1-1 .56 0 1 .44 1 1zm2.86-2.8c0 .54-.45 1-1 1s-1-.46-1-1c0-.56.45-1 1-1s1 .44 1 1zm2.9-2.78c0 .54-.46 1-1 1-.56 0-1-.46-1-1 0-.56.44-1 1-1 .54 0 1 .44 1 1zm2.96-2.7c0 .56-.45 1-1 1-.56 0-1-.44-1-1 0-.54.44-1 1-1 .55 0 1 .46 1 1zm3-2.62c0 .55-.43 1-1 1-.54 0-1-.45-1-1s.46-1 1-1c.57 0 1 .45 1 1zm3.1-2.55c0 .55-.45 1-1 1-.56 0-1-.45-1-1s.44-1 1-1c.55 0 1 .45 1 1zm3.16-2.45c0 .55-.45 1-1 1s-1-.45-1-1c0-.56.45-1 1-1s1 .44 1 1zm3.2-2.4c0 .56-.43 1-1 1-.54 0-1-.44-1-1 0-.54.46-1 1-1 .57 0 1 .46 1 1zm3.3-2.27c0 .56-.45 1-1 1s-1-.44-1-1c0-.55.45-1 1-1s1 .45 1 1zm3.37-2.16c0 .56-.45 1-1 1s-1-.44-1-1c0-.55.45-1 1-1s1 .45 1 1zm3.43-2.06c0 .56-.44 1-1 1-.55 0-1-.44-1-1 0-.55.45-1 1-1 .56 0 1 .45 1 1zm3.5-1.95c0 .56-.45 1-1 1s-1-.44-1-1c0-.55.45-1 1-1s1 .45 1 1zm3.56-1.83c0 .56-.45 1-1 1s-1-.44-1-1c0-.55.45-1 1-1s1 .45 1 1zm3.62-1.7c0 .55-.45 1-1 1s-1-.45-1-1 .45-1 1-1 1 .45 1 1zm3.7-1.56c0 .56-.46 1-1 1-.56 0-1-.44-1-1 0-.55.44-1 1-1 .54 0 1 .45 1 1zm3.73-1.42c0 .55-.45 1-1 1s-1-.45-1-1 .45-1 1-1 1 .45 1 1zm3.8-1.3c0 .56-.46 1-1 1-.56 0-1-.44-1-1 0-.54.44-1 1-1 .54 0 1 .46 1 1zm3.82-1.14c0 .55-.45 1-1 1-.56 0-1-.45-1-1 0-.56.44-1 1-1 .55 0 1 .44 1 1zm3.86-1.03c0 .56-.44 1-1 1-.55 0-1-.44-1-1 0-.55.45-1 1-1 .56 0 1 .45 1 1zm3.9-.9c0 .57-.44 1-1 1-.55 0-1-.43-1-1 0-.54.45-1 1-1 .56 0 1 .46 1 1zm3.94-.74c0 .57-.45 1-1 1s-1-.43-1-1c0-.54.45-1 1-1s1 .46 1 1zm3.96-.6c0 .57-.45 1-1 1-.56 0-1-.43-1-1 0-.54.44-1 1-1 .55 0 1 .46 1 1z" fill="#5e5e5e"/><path d="M702.55 847.36l-1.05.02v-2l1-.02z" fill="#5e5e5e"/><path d="M935.27 704.38l-13.92 5.6-.63-9.26z" stroke="#5e5e5e" stroke-width="2" fill="#5e5e5e"/><path d="M703.5 895.68c0 .56-.44 1-1 1-.55 0-1-.44-1-1 0-.55.45-1 1-1 .56 0 1 .45 1 1zm4.02-.08c0 .55-.45 1-1 1s-1-.45-1-1 .45-1 1-1 1 .45 1 1zm4.02-.08c0 .55-.45 1-1 1-.56 0-1-.45-1-1s.44-1 1-1c.55 0 1 .45 1 1zm4-.1c0 .57-.44 1-1 1-.54 0-1-.43-1-1 0-.54.46-1 1-1 .56 0 1 .46 1 1zm4.02-.24c0 .55-.45 1-1 1s-1-.45-1-1 .45-1 1-1 1 .45 1 1zm4-.25c0 .55-.44 1-1 1-.54 0-1-.45-1-1s.46-1 1-1c.56 0 1 .45 1 1zm4-.28c0 .55-.43 1-1 1-.54 0-1-.45-1-1s.46-1 1-1c.57 0 1 .45 1 1zm4-.42c0 .55-.44 1-1 1-.54 0-1-.45-1-1s.46-1 1-1c.56 0 1 .45 1 1zm4-.42c0 .56-.44 1-1 1-.55 0-1-.44-1-1 0-.54.45-1 1-1 .56 0 1 .46 1 1zm4-.52c0 .55-.46 1-1 1-.57 0-1-.45-1-1s.43-1 1-1c.54 0 1 .45 1 1zm3.96-.6c0 .56-.45 1-1 1s-1-.44-1-1c0-.54.45-1 1-1s1 .46 1 1zm3.96-.64c0 .55-.45 1-1 1s-1-.45-1-1 .45-1 1-1 1 .45 1 1zm3.95-.75c0 .54-.45 1-1 1s-1-.46-1-1c0-.56.45-1 1-1s1 .44 1 1zm3.93-.8c0 .55-.44 1-1 1-.55 0-1-.45-1-1 0-.56.45-1 1-1 .56 0 1 .44 1 1zm3.92-.92c0 .55-.45 1-1 1-.56 0-1-.45-1-1 0-.56.44-1 1-1 .55 0 1 .44 1 1zm3.9-.96c0 .55-.45 1-1 1-.56 0-1-.45-1-1s.44-1 1-1c.55 0 1 .45 1 1zm3.86-1.08c0 .55-.44 1-1 1-.55 0-1-.45-1-1s.45-1 1-1c.56 0 1 .45 1 1zm3.86-1.12c0 .55-.45 1-1 1s-1-.45-1-1 .45-1 1-1 1 .45 1 1zm3.82-1.24c0 .55-.45 1-1 1s-1-.45-1-1c0-.56.45-1 1-1s1 .44 1 1zm3.8-1.3c0 .56-.44 1-1 1-.55 0-1-.44-1-1 0-.54.45-1 1-1 .56 0 1 .46 1 1zm3.77-1.4c0 .56-.46 1-1 1-.56 0-1-.44-1-1 0-.55.44-1 1-1 .54 0 1 .45 1 1zm3.74-1.43c0 .55-.45 1-1 1s-1-.45-1-1c0-.56.45-1 1-1s1 .44 1 1zm3.7-1.56c0 .54-.45 1-1 1s-1-.46-1-1c0-.56.45-1 1-1s1 .44 1 1zm3.7-1.57c0 .55-.45 1-1 1s-1-.45-1-1 .45-1 1-1 1 .45 1 1zm3.64-1.7c0 .54-.45 1-1 1-.56 0-1-.46-1-1 0-.57.44-1 1-1 .55 0 1 .43 1 1zm3.63-1.73c0 .55-.44 1-1 1-.54 0-1-.45-1-1s.46-1 1-1c.56 0 1 .45 1 1zm3.63-1.73c0 .56-.44 1-1 1-.55 0-1-.44-1-1 0-.55.45-1 1-1 .56 0 1 .45 1 1zm3.58-1.82c0 .55-.44 1-1 1-.54 0-1-.45-1-1s.46-1 1-1c.56 0 1 .45 1 1zm3.6-1.82c0 .55-.46 1-1 1-.56 0-1-.45-1-1 0-.56.44-1 1-1 .54 0 1 .44 1 1zm3.57-1.83c0 .56-.45 1-1 1s-1-.44-1-1c0-.55.45-1 1-1s1 .45 1 1zm3.58-1.82c0 .55-.45 1-1 1s-1-.45-1-1 .45-1 1-1 1 .45 1 1zm3.58-1.82c0 .55-.45 1-1 1s-1-.45-1-1c0-.56.45-1 1-1s1 .44 1 1zm3.58-1.83c0 .56-.44 1-1 1-.54 0-1-.44-1-1 0-.55.46-1 1-1 .56 0 1 .45 1 1zm3.6-1.82c0 .56-.46 1-1 1-.57 0-1-.44-1-1 0-.54.43-1 1-1 .54 0 1 .46 1 1zm3.57-1.8c0 .54-.45 1-1 1-.56 0-1-.46-1-1 0-.57.44-1 1-1 .55 0 1 .43 1 1zm3.57-1.84c0 .55-.44 1-1 1-.55 0-1-.45-1-1s.45-1 1-1c.56 0 1 .45 1 1zm3.58-1.82c0 .55-.44 1-1 1-.55 0-1-.45-1-1s.45-1 1-1c.56 0 1 .45 1 1zm3.58-1.82c0 .55-.45 1-1 1s-1-.45-1-1c0-.56.45-1 1-1s1 .44 1 1zm3.58-1.83c0 .54-.45 1-1 1s-1-.46-1-1c0-.56.45-1 1-1s1 .44 1 1zm3.66-1.66c0 .55-.45 1-1 1s-1-.45-1-1 .45-1 1-1 1 .45 1 1zm3.7-1.56c0 .56-.44 1-1 1-.55 0-1-.44-1-1 0-.55.45-1 1-1 .56 0 1 .45 1 1zm3.73-1.5c0 .56-.45 1-1 1s-1-.44-1-1c0-.54.45-1 1-1s1 .46 1 1zm3.76-1.4c0 .56-.44 1-1 1-.55 0-1-.44-1-1 0-.55.45-1 1-1 .56 0 1 .45 1 1zm3.8-1.34c0 .55-.46 1-1 1-.56 0-1-.45-1-1s.44-1 1-1c.54 0 1 .45 1 1zm3.8-1.24c0 .55-.44 1-1 1-.54 0-1-.45-1-1s.46-1 1-1c.56 0 1 .45 1 1zm3.85-1.18c0 .55-.45 1-1 1-.56 0-1-.45-1-1s.44-1 1-1c.55 0 1 .45 1 1zm3.87-1.08c0 .55-.45 1-1 1-.56 0-1-.45-1-1s.44-1 1-1c.55 0 1 .45 1 1zm3.88-1.02c0 .56-.45 1-1 1s-1-.44-1-1c0-.55.45-1 1-1s1 .45 1 1zm3.9-.9c0 .54-.44 1-1 1-.54 0-1-.46-1-1 0-.56.46-1 1-1 .56 0 1 .44 1 1zm3.94-.87c0 .56-.45 1-1 1-.56 0-1-.44-1-1 0-.55.44-1 1-1 .55 0 1 .45 1 1zm3.94-.75c0 .55-.44 1-1 1-.54 0-1-.45-1-1s.46-1 1-1c.56 0 1 .45 1 1zm3.96-.7c0 .54-.44 1-1 1-.55 0-1-.46-1-1 0-.56.45-1 1-1 .56 0 1 .44 1 1zm3.98-.6c0 .56-.45 1-1 1s-1-.44-1-1c0-.55.45-1 1-1s1 .45 1 1zm3.97-.58c0 .55-.44 1-1 1-.54 0-1-.45-1-1s.46-1 1-1c.56 0 1 .45 1 1zm4-.42c0 .55-.44 1-1 1-.55 0-1-.45-1-1 0-.56.45-1 1-1 .56 0 1 .44 1 1zm4-.42c0 .55-.45 1-1 1s-1-.45-1-1c0-.56.45-1 1-1s1 .44 1 1zm4-.35c0 .55-.45 1-1 1s-1-.45-1-1 .45-1 1-1 1 .45 1 1z" fill="#5e5e5e"/><path d="M702.55 896.68l-1.05.02v-2l1-.02z" fill="#5e5e5e"/><path d="M935.27 832.58l-14.1 5.1-.32-9.26z" stroke="#5e5e5e" stroke-width="2" fill="#5e5e5e"/><defs><path fill="#333" d="M24-248c120-7 223 5 221 122C244-46 201 0 124 0H24v-248zM76-40c74 7 117-18 117-86 0-67-45-88-117-82v168" id="W"/><path fill="#333" d="M85 4C-2 5 27-109 22-190h50c7 57-23 150 33 157 60-5 35-97 40-157h50l1 190h-47c-2-12 1-28-3-38-12 25-28 42-61 42" id="X"/><path fill="#333" d="M135-194c53 0 70 44 70 98 0 56-19 98-73 100-31 1-45-17-59-34 3 33 2 69 2 105H25l-1-265h48c2 10 0 23 3 31 11-24 29-35 60-35zM114-30c33 0 39-31 40-66 0-38-9-64-40-64-56 0-55 130 0 130" id="Y"/><path fill="#333" d="M25 0v-261h50V0H25" id="Z"/><path fill="#333" d="M25-224v-37h50v37H25zM25 0v-190h50V0H25" id="aa"/><path fill="#333" d="M190-63c-7 42-38 67-86 67-59 0-84-38-90-98-12-110 154-137 174-36l-49 2c-2-19-15-32-35-32-30 0-35 28-38 64-6 74 65 87 74 30" id="ab"/><path fill="#333" d="M133-34C117-15 103 5 69 4 32 3 11-16 11-54c-1-60 55-63 116-61 1-26-3-47-28-47-18 1-26 9-28 27l-52-2c7-38 36-58 82-57s74 22 75 68l1 82c-1 14 12 18 25 15v27c-30 8-71 5-69-32zm-48 3c29 0 43-24 42-57-32 0-66-3-65 30 0 17 8 27 23 27" id="ac"/><path fill="#333" d="M115-3C79 11 28 4 28-45v-112H4v-33h27l15-45h31v45h36v33H77v99c-1 23 16 31 38 25v30" id="ad"/><path fill="#333" d="M135-194c87-1 58 113 63 194h-50c-7-57 23-157-34-157-59 0-34 97-39 157H25l-1-190h47c2 12-1 28 3 38 12-26 28-41 61-42" id="ae"/><path fill="#333" d="M195-6C206 82 75 100 31 46c-4-6-6-13-8-21l49-6c3 16 16 24 34 25 40 0 42-37 40-79-11 22-30 35-61 35-53 0-70-43-70-97 0-56 18-96 73-97 30 0 46 14 59 34l2-30h47zm-90-29c32 0 41-27 41-63 0-35-9-62-40-62-32 0-39 29-40 63 0 36 9 62 39 62" id="af"/><g id="a"><use transform="matrix(0.06172839506172839,0,0,0.06172839506172839,0,0)" xlink:href="#W"/><use transform="matrix(0.06172839506172839,0,0,0.06172839506172839,15.987654320987653,0)" xlink:href="#X"/><use transform="matrix(0.06172839506172839,0,0,0.06172839506172839,29.50617283950617,0)" xlink:href="#Y"/><use transform="matrix(0.06172839506172839,0,0,0.06172839506172839,43.02469135802469,0)" xlink:href="#Z"/><use transform="matrix(0.06172839506172839,0,0,0.06172839506172839,49.19753086419753,0)" xlink:href="#aa"/><use transform="matrix(0.06172839506172839,0,0,0.06172839506172839,55.370370370370374,0)" xlink:href="#ab"/><use transform="matrix(0.06172839506172839,0,0,0.06172839506172839,67.71604938271605,0)" xlink:href="#ac"/><use transform="matrix(0.06172839506172839,0,0,0.06172839506172839,80.06172839506173,0)" xlink:href="#ad"/><use transform="matrix(0.06172839506172839,0,0,0.06172839506172839,87.40740740740742,0)" xlink:href="#aa"/><use transform="matrix(0.06172839506172839,0,0,0.06172839506172839,93.58024691358025,0)" xlink:href="#ae"/><use transform="matrix(0.06172839506172839,0,0,0.06172839506172839,107.09876543209877,0)" xlink:href="#af"/></g><path fill="#333" d="M88-194c31-1 46 15 58 34l-1-101h50l1 261h-48c-2-10 0-23-3-31C134-8 116 4 84 4 32 4 16-41 15-95c0-56 19-97 73-99zm17 164c33 0 40-30 41-66 1-37-9-64-41-64s-38 30-39 65c0 43 13 65 39 65" id="ag"/><path fill="#333" d="M135-150c-39-12-60 13-60 57V0H25l-1-190h47c2 13-1 29 3 40 6-28 27-53 61-41v41" id="ah"/><path fill="#333" d="M185-48c-13 30-37 53-82 52C43 2 14-33 14-96s30-98 90-98c62 0 83 45 84 108H66c0 31 8 55 39 56 18 0 30-7 34-22zm-45-69c5-46-57-63-70-21-2 6-4 13-4 21h74" id="ai"/><path fill="#333" d="M110-194c64 0 96 36 96 99 0 64-35 99-97 99-61 0-95-36-95-99 0-62 34-99 96-99zm-1 164c35 0 45-28 45-65 0-40-10-65-43-65-34 0-45 26-45 65 0 36 10 65 43 65" id="aj"/><path fill="#333" d="M123 10C108 53 80 86 19 72V37c35 8 53-11 59-39L3-190h52l48 148c12-52 28-100 44-148h51" id="ak"/><g id="b"><use transform="matrix(0.06172839506172839,0,0,0.06172839506172839,0,0)" xlink:href="#ag"/><use transform="matrix(0.06172839506172839,0,0,0.06172839506172839,13.518518518518517,0)" xlink:href="#aa"/><use transform="matrix(0.06172839506172839,0,0,0.06172839506172839,19.691358024691358,0)" xlink:href="#ah"/><use transform="matrix(0.06172839506172839,0,0,0.06172839506172839,28.333333333333332,0)" xlink:href="#ai"/><use transform="matrix(0.06172839506172839,0,0,0.06172839506172839,40.67901234567901,0)" xlink:href="#ab"/><use transform="matrix(0.06172839506172839,0,0,0.06172839506172839,53.02469135802469,0)" xlink:href="#ad"/><use transform="matrix(0.06172839506172839,0,0,0.06172839506172839,60.37037037037037,0)" xlink:href="#aj"/><use transform="matrix(0.06172839506172839,0,0,0.06172839506172839,73.88888888888889,0)" xlink:href="#ah"/><use transform="matrix(0.06172839506172839,0,0,0.06172839506172839,82.53086419753086,0)" xlink:href="#ak"/></g><path fill="#333" d="M101-251c68 0 85 55 85 127S166 4 100 4C33 4 14-52 14-124c0-73 17-127 87-127zm-1 229c47 0 54-49 54-102s-4-102-53-102c-51 0-55 48-55 102 0 53 5 102 54 102" id="al"/><g id="c"><use transform="matrix(0.06172839506172839,0,0,0.06172839506172839,0,0)" xlink:href="#al"/><use transform="matrix(0.06172839506172839,0,0,0.06172839506172839,12.345679012345679,0)" xlink:href="#al"/></g><path fill="#333" d="M27 0v-27h64v-190l-56 39v-29l58-41h29v221h61V0H27" id="am"/><g id="d"><use transform="matrix(0.06172839506172839,0,0,0.06172839506172839,0,0)" xlink:href="#al"/><use transform="matrix(0.06172839506172839,0,0,0.06172839506172839,12.345679012345679,0)" xlink:href="#am"/></g><g id="e"><use transform="matrix(0.06172839506172839,0,0,0.06172839506172839,0,0)" xlink:href="#am"/><use transform="matrix(0.06172839506172839,0,0,0.06172839506172839,12.345679012345679,0)" xlink:href="#al"/></g><g id="f"><use transform="matrix(0.06172839506172839,0,0,0.06172839506172839,0,0)" xlink:href="#am"/><use transform="matrix(0.06172839506172839,0,0,0.06172839506172839,10.679012345679013,0)" xlink:href="#am"/></g><g id="g"><use transform="matrix(0.06172839506172839,0,0,0.06172839506172839,0,0)" xlink:href="#W"/><use transform="matrix(0.06172839506172839,0,0,0.06172839506172839,15.987654320987653,0)" xlink:href="#aa"/><use transform="matrix(0.06172839506172839,0,0,0.06172839506172839,22.160493827160494,0)" xlink:href="#ah"/><use transform="matrix(0.06172839506172839,0,0,0.06172839506172839,30.80246913580247,0)" xlink:href="#ai"/><use transform="matrix(0.06172839506172839,0,0,0.06172839506172839,43.148148148148145,0)" xlink:href="#ab"/><use transform="matrix(0.06172839506172839,0,0,0.06172839506172839,55.49382716049382,0)" xlink:href="#ad"/><use transform="matrix(0.06172839506172839,0,0,0.06172839506172839,62.8395061728395,0)" xlink:href="#aj"/><use transform="matrix(0.06172839506172839,0,0,0.06172839506172839,76.35802469135801,0)" xlink:href="#ah"/><use transform="matrix(0.06172839506172839,0,0,0.06172839506172839,84.99999999999999,0)" xlink:href="#ak"/></g><path fill="#333" d="M177-190C167-65 218 103 67 71c-23-6-38-20-44-43l32-5c15 47 100 32 89-28v-30C133-14 115 1 83 1 29 1 15-40 15-95c0-56 16-97 71-98 29-1 48 16 59 35 1-10 0-23 2-32h30zM94-22c36 0 50-32 50-73 0-42-14-75-50-75-39 0-46 34-46 75s6 73 46 73" id="an"/><path fill="#333" d="M24 0v-261h32V0H24" id="ao"/><path fill="#333" d="M100-194c62-1 85 37 85 99 1 63-27 99-86 99S16-35 15-95c0-66 28-99 85-99zM99-20c44 1 53-31 53-75 0-43-8-75-51-75s-53 32-53 75 10 74 51 75" id="ap"/><path fill="#333" d="M115-194c53 0 69 39 70 98 0 66-23 100-70 100C84 3 66-7 56-30L54 0H23l1-261h32v101c10-23 28-34 59-34zm-8 174c40 0 45-34 45-75 0-40-5-75-45-74-42 0-51 32-51 76 0 43 10 73 51 73" id="aq"/><path fill="#333" d="M141-36C126-15 110 5 73 4 37 3 15-17 15-53c-1-64 63-63 125-63 3-35-9-54-41-54-24 1-41 7-42 31l-33-3c5-37 33-52 76-52 45 0 72 20 72 64v82c-1 20 7 32 28 27v20c-31 9-61-2-59-35zM48-53c0 20 12 33 32 33 41-3 63-29 60-74-43 2-92-5-92 41" id="ar"/><g id="h"><use transform="matrix(0.049382716049382706,0,0,0.049382716049382706,0,0)" xlink:href="#an"/><use transform="matrix(0.049382716049382706,0,0,0.049382716049382706,9.87654320987654,0)" xlink:href="#ao"/><use transform="matrix(0.049382716049382706,0,0,0.049382716049382706,13.777777777777775,0)" xlink:href="#ap"/><use transform="matrix(0.049382716049382706,0,0,0.049382716049382706,23.654320987654316,0)" xlink:href="#aq"/><use transform="matrix(0.049382716049382706,0,0,0.049382716049382706,33.53086419753086,0)" xlink:href="#ar"/><use transform="matrix(0.049382716049382706,0,0,0.049382716049382706,43.407407407407405,0)" xlink:href="#ao"/></g><path fill="#333" d="M85-194c31 0 48 13 60 33l-1-100h32l1 261h-30c-2-10 0-23-3-31C134-8 116 4 85 4 32 4 16-35 15-94c0-66 23-100 70-100zm9 24c-40 0-46 34-46 75 0 40 6 74 45 74 42 0 51-32 51-76 0-42-9-74-50-73" id="as"/><path fill="#333" d="M100-194c63 0 86 42 84 106H49c0 40 14 67 53 68 26 1 43-12 49-29l28 8c-11 28-37 45-77 45C44 4 14-33 15-96c1-61 26-98 85-98zm52 81c6-60-76-77-97-28-3 7-6 17-6 28h103" id="at"/><path fill="#333" d="M115-194c55 1 70 41 70 98S169 2 115 4C84 4 66-9 55-30l1 105H24l-1-265h31l2 30c10-21 28-34 59-34zm-8 174c40 0 45-34 45-75s-6-73-45-74c-42 0-51 32-51 76 0 43 10 73 51 73" id="au"/><path fill="#333" d="M59-47c-2 24 18 29 38 22v24C64 9 27 4 27-40v-127H5v-23h24l9-43h21v43h35v23H59v120" id="av"/><path fill="#333" d="M106-169C34-169 62-67 57 0H25v-261h32l-1 103c12-21 28-36 61-36 89 0 53 116 60 194h-32v-121c2-32-8-49-39-48" id="aw"/><g id="i"><use transform="matrix(0.049382716049382706,0,0,0.049382716049382706,0,0)" xlink:href="#as"/><use transform="matrix(0.049382716049382706,0,0,0.049382716049382706,9.87654320987654,0)" xlink:href="#at"/><use transform="matrix(0.049382716049382706,0,0,0.049382716049382706,19.75308641975308,0)" xlink:href="#au"/><use transform="matrix(0.049382716049382706,0,0,0.049382716049382706,29.629629629629623,0)" xlink:href="#av"/><use transform="matrix(0.049382716049382706,0,0,0.049382716049382706,34.56790123456789,0)" xlink:href="#aw"/></g><path fill="#333" d="M67-93c0 74 22 123 53 168H70C40 30 18-18 18-93s22-123 52-168h50c-32 44-53 94-53 168" id="ax"/><path fill="#333" d="M102-93c0 74-22 123-52 168H0C30 29 54-18 53-93c0-74-22-123-53-168h50c30 45 52 94 52 168" id="ay"/><g id="j"><use transform="matrix(0.049382716049382706,0,0,0.049382716049382706,0,0)" xlink:href="#ax"/><use transform="matrix(0.049382716049382706,0,0,0.049382716049382706,5.876543209876542,0)" xlink:href="#ae"/><use transform="matrix(0.049382716049382706,0,0,0.049382716049382706,16.691358024691354,0)" xlink:href="#ay"/></g><path fill="#333" d="M15-148v-39h180v39H15zm0 97v-39h180v39H15" id="az"/><use transform="matrix(0.049382716049382706,0,0,0.049382716049382706,0,0)" xlink:href="#az" id="k"/><path fill="#333" d="M182-182c0 78-84 86-111 141h115V0H12c-6-101 99-100 120-180 1-22-12-31-33-32-23 0-32 14-35 34l-49-3c5-45 32-70 84-70 51 0 83 22 83 69" id="aA"/><use transform="matrix(0.049382716049382706,0,0,0.049382716049382706,0,0)" xlink:href="#aA" id="l"/><path fill="#333" d="M68-38c1 34 0 65-14 84H32c9-13 17-26 17-46H33v-38h35" id="aB"/><g id="m"><use transform="matrix(0.06172839506172839,0,0,0.06172839506172839,0,0)" xlink:href="#ar"/><use transform="matrix(0.06172839506172839,0,0,0.06172839506172839,12.345679012345679,0)" xlink:href="#aB"/></g><g id="n"><use transform="matrix(0.06172839506172839,0,0,0.06172839506172839,0,0)" xlink:href="#aq"/><use transform="matrix(0.06172839506172839,0,0,0.06172839506172839,12.345679012345679,0)" xlink:href="#aB"/></g><path fill="#333" d="M96-169c-40 0-48 33-48 73s9 75 48 75c24 0 41-14 43-38l32 2c-6 37-31 61-74 61-59 0-76-41-82-99-10-93 101-131 147-64 4 7 5 14 7 22l-32 3c-4-21-16-35-41-35" id="aC"/><use transform="matrix(0.06172839506172839,0,0,0.06172839506172839,0,0)" xlink:href="#aC" id="o"/><path fill="#333" d="M141 0L90-78 38 0H4l68-98-65-92h35l48 74 47-74h35l-64 92 68 98h-35" id="aD"/><g id="p"><use transform="matrix(0.06172839506172839,0,0,0.06172839506172839,0,0)" xlink:href="#aD"/><use transform="matrix(0.06172839506172839,0,0,0.06172839506172839,11.11111111111111,0)" xlink:href="#aB"/></g><path fill="#333" d="M179-190L93 31C79 59 56 82 12 73V49c39 6 53-20 64-50L1-190h34L92-34l54-156h33" id="aE"/><g id="q"><use transform="matrix(0.06172839506172839,0,0,0.06172839506172839,0,0)" xlink:href="#aE"/><use transform="matrix(0.06172839506172839,0,0,0.06172839506172839,9.444444444444445,0)" xlink:href="#aB"/></g><path fill="#333" d="M9 0v-24l116-142H16v-24h144v24L44-24h123V0H9" id="aF"/><use transform="matrix(0.06172839506172839,0,0,0.06172839506172839,0,0)" xlink:href="#aF" id="r"/><g id="s"><use transform="matrix(0.06172839506172839,0,0,0.06172839506172839,0,0)" xlink:href="#as"/><use transform="matrix(0.06172839506172839,0,0,0.06172839506172839,12.345679012345679,0)" xlink:href="#aB"/></g><g id="t"><use transform="matrix(0.06172839506172839,0,0,0.06172839506172839,0,0)" xlink:href="#at"/><use transform="matrix(0.06172839506172839,0,0,0.06172839506172839,12.345679012345679,0)" xlink:href="#aB"/></g><path fill="#333" d="M101-234c-31-9-42 10-38 44h38v23H63V0H32v-167H5v-23h27c-7-52 17-82 69-68v24" id="aG"/><g id="u"><use transform="matrix(0.06172839506172839,0,0,0.06172839506172839,0,0)" xlink:href="#aG"/><use transform="matrix(0.06172839506172839,0,0,0.06172839506172839,6.172839506172839,0)" xlink:href="#aB"/></g><g id="v"><use transform="matrix(0.06172839506172839,0,0,0.06172839506172839,0,0)" xlink:href="#an"/><use transform="matrix(0.06172839506172839,0,0,0.06172839506172839,12.345679012345679,0)" xlink:href="#aB"/></g><use transform="matrix(0.06790123456790123,0,0,0.06790123456790123,0,0)" xlink:href="#X" id="w"/><use transform="matrix(0.061728395061728385,0,0,0.061728395061728385,0,0)" xlink:href="#as" id="x"/><path fill="#333" d="M18-150v-26h174v26H18zm0 90v-26h174v26H18" id="aH"/><use transform="matrix(0.061728395061728385,0,0,0.061728395061728385,0,0)" xlink:href="#aH" id="y"/><path fill="#333" d="M101-251c82-7 93 87 43 132L82-64C71-53 59-42 53-27h129V0H18c2-99 128-94 128-182 0-28-16-43-45-43s-46 15-49 41l-32-3c6-41 34-60 81-64" id="aI"/><use transform="matrix(0.061728395061728385,0,0,0.061728395061728385,0,0)" xlink:href="#aI" id="z"/><use transform="matrix(0.061728395061728385,0,0,0.061728395061728385,0,0)" xlink:href="#ag" id="A"/><use transform="matrix(0.061728395061728385,0,0,0.061728395061728385,0,0)" xlink:href="#az" id="B"/><use transform="matrix(0.061728395061728385,0,0,0.061728395061728385,0,0)" xlink:href="#aA" id="C"/><path fill="#333" d="M108 0H70L1-190h34L89-25l56-165h34" id="aJ"/><g id="D"><use transform="matrix(0.06172839506172839,0,0,0.06172839506172839,0,0)" xlink:href="#aJ"/><use transform="matrix(0.06172839506172839,0,0,0.06172839506172839,9.444444444444445,0)" xlink:href="#aB"/></g><path fill="#333" d="M206 0h-36l-40-164L89 0H53L-1-190h32L70-26l43-164h34l41 164 42-164h31" id="aK"/><use transform="matrix(0.06172839506172839,0,0,0.06172839506172839,0,0)" xlink:href="#aK" id="E"/><path fill="#333" d="M87 75C49 33 22-17 22-94c0-76 28-126 65-167h31c-38 41-64 92-64 168S80 34 118 75H87" id="aL"/><path fill="#333" d="M84 4C-5 8 30-112 23-190h32v120c0 31 7 50 39 49 72-2 45-101 50-169h31l1 190h-30c-1-10 1-25-2-33-11 22-28 36-60 37" id="aM"/><path fill="#333" d="M33-261c38 41 65 92 65 168S71 34 33 75H2C39 34 66-17 66-93S39-220 2-261h31" id="aN"/><g id="F"><use transform="matrix(0.061728395061728385,0,0,0.061728395061728385,0,0)" xlink:href="#aw"/><use transform="matrix(0.061728395061728385,0,0,0.061728395061728385,12.345679012345677,0)" xlink:href="#aL"/><use transform="matrix(0.061728395061728385,0,0,0.061728395061728385,19.691358024691354,0)" xlink:href="#aM"/><use transform="matrix(0.061728395061728385,0,0,0.061728395061728385,32.03703703703703,0)" xlink:href="#aN"/></g><path fill="#333" d="M33 0v-38h34V0H33" id="aO"/><g id="G"><use transform="matrix(0.061728395061728385,0,0,0.061728395061728385,0,0)" xlink:href="#aO"/><use transform="matrix(0.061728395061728385,0,0,0.061728395061728385,6.1728395061728385,0)" xlink:href="#aO"/><use transform="matrix(0.061728395061728385,0,0,0.061728395061728385,12.345679012345677,0)" xlink:href="#aO"/><use transform="matrix(0.061728395061728385,0,0,0.061728395061728385,18.518518518518515,0)" xlink:href="#al"/><use transform="matrix(0.061728395061728385,0,0,0.061728395061728385,30.864197530864192,0)" xlink:href="#am"/><use transform="matrix(0.061728395061728385,0,0,0.061728395061728385,43.20987654320987,0)" xlink:href="#al"/></g><g id="H"><use transform="matrix(0.06172839506172839,0,0,0.06172839506172839,0,0)" xlink:href="#al"/><use transform="matrix(0.06172839506172839,0,0,0.06172839506172839,12.345679012345679,0)" xlink:href="#al"/><use transform="matrix(0.06172839506172839,0,0,0.06172839506172839,24.691358024691358,0)" xlink:href="#al"/></g><g id="I"><use transform="matrix(0.06172839506172839,0,0,0.06172839506172839,0,0)" xlink:href="#al"/><use transform="matrix(0.06172839506172839,0,0,0.06172839506172839,12.345679012345679,0)" xlink:href="#al"/><use transform="matrix(0.06172839506172839,0,0,0.06172839506172839,24.691358024691358,0)" xlink:href="#am"/></g><path fill="#333" d="M101-251c68 0 84 54 84 127C185-50 166 4 99 4S15-52 14-124c-1-75 17-127 87-127zm-1 216c37-5 36-46 36-89s4-89-36-89c-39 0-36 45-36 89 0 43-3 85 36 89" id="aP"/><path fill="#333" d="M23 0v-37h61v-169l-59 37v-38l62-41h46v211h57V0H23" id="aQ"/><g id="J"><use transform="matrix(0.06172839506172839,0,0,0.06172839506172839,0,0)" xlink:href="#aP"/><use transform="matrix(0.06172839506172839,0,0,0.06172839506172839,12.345679012345679,0)" xlink:href="#aQ"/><use transform="matrix(0.06172839506172839,0,0,0.06172839506172839,24.691358024691358,0)" xlink:href="#aP"/></g><g id="K"><use transform="matrix(0.06172839506172839,0,0,0.06172839506172839,0,0)" xlink:href="#al"/><use transform="matrix(0.06172839506172839,0,0,0.06172839506172839,12.345679012345679,0)" xlink:href="#am"/><use transform="matrix(0.06172839506172839,0,0,0.06172839506172839,23.02469135802469,0)" xlink:href="#am"/></g><g id="L"><use transform="matrix(0.06172839506172839,0,0,0.06172839506172839,0,0)" xlink:href="#am"/><use transform="matrix(0.06172839506172839,0,0,0.06172839506172839,12.345679012345679,0)" xlink:href="#al"/><use transform="matrix(0.06172839506172839,0,0,0.06172839506172839,24.691358024691358,0)" xlink:href="#al"/></g><g id="M"><use transform="matrix(0.06172839506172839,0,0,0.06172839506172839,0,0)" xlink:href="#am"/><use transform="matrix(0.06172839506172839,0,0,0.06172839506172839,12.345679012345679,0)" xlink:href="#al"/><use transform="matrix(0.06172839506172839,0,0,0.06172839506172839,24.691358024691358,0)" xlink:href="#am"/></g><g id="N"><use transform="matrix(0.06172839506172839,0,0,0.06172839506172839,0,0)" xlink:href="#aQ"/><use transform="matrix(0.06172839506172839,0,0,0.06172839506172839,11.11111111111111,0)" xlink:href="#aQ"/><use transform="matrix(0.06172839506172839,0,0,0.06172839506172839,23.45679012345679,0)" xlink:href="#aP"/></g><g id="O"><use transform="matrix(0.06172839506172839,0,0,0.06172839506172839,0,0)" xlink:href="#am"/><use transform="matrix(0.06172839506172839,0,0,0.06172839506172839,10.679012345679013,0)" xlink:href="#am"/><use transform="matrix(0.06172839506172839,0,0,0.06172839506172839,21.358024691358025,0)" xlink:href="#am"/></g><path fill="#333" d="M128-127c34 4 56 21 59 58 7 91-148 94-172 28-4-9-6-17-7-26l51-5c1 24 16 35 40 36 23 0 39-12 38-36-1-31-31-36-65-34v-40c32 2 59-3 59-33 0-20-13-33-34-33s-33 13-35 32l-50-3c6-44 37-68 86-68 50 0 83 20 83 66 0 35-22 52-53 58" id="aR"/><use transform="matrix(0.049382716049382706,0,0,0.049382716049382706,0,0)" xlink:href="#aR" id="P"/><use transform="matrix(0.061728395061728385,0,0,0.061728395061728385,0,0)" xlink:href="#as" id="Q"/><use transform="matrix(0.061728395061728385,0,0,0.061728395061728385,0,0)" xlink:href="#aH" id="R"/><use transform="matrix(0.061728395061728385,0,0,0.061728395061728385,0,0)" xlink:href="#aI" id="S"/><g id="T"><use transform="matrix(0.06172839506172839,0,0,0.06172839506172839,0,0)" xlink:href="#aG"/><use transform="matrix(0.06172839506172839,0,0,0.06172839506172839,6.172839506172839,0)" xlink:href="#aB"/></g><use transform="matrix(0.06172839506172839,0,0,0.06172839506172839,0,0)" xlink:href="#an" id="U"/><use transform="matrix(0.061728395061728385,0,0,0.061728395061728385,0,0)" xlink:href="#aR" id="V"/></defs></g></svg>